<svg width="20" height="18" viewBox="0 0 20 18" fill="none" xmlns="http://www.w3.org/2000/svg">
<path d="M18 2C16.7283 2.79748 15.5502 3.55761 14.4316 4.57151C12.8611 5.995 11.2226 7.19247 9.5491 8.47241C7.47227 10.0608 5.72625 12.1526 3.53299 13.5751C3.27693 13.7412 3.10261 13.9502 2.86954 14.1391C2.53382 14.4113 3.14875 13.16 3.18516 13.0917C3.68439 12.155 4.20025 11.2334 4.66664 10.2785C4.98967 9.61711 5.14766 8.81498 5.47824 8.19041C6.08032 7.05291 4.2238 10.436 3.62316 11.5743C3.2033 12.3701 2.61544 13.1043 2.29627 13.9511C2.18779 14.2389 2.1427 14.5362 2.02574 14.8105C1.8697 15.1765 2.4668 15.0522 2.6441 15.0522C3.64031 15.0522 4.62937 15.0403 5.61995 15.1731C6.10645 15.2383 11.5072 16.333 11.5072 15.8982" stroke="#FF4800" stroke-width="3" stroke-linecap="round"/>
</svg>
