<svg width="21" height="15" viewBox="0 0 21 15" fill="none" xmlns="http://www.w3.org/2000/svg">
<path d="M19.2119 13.238C18.0647 12.2701 16.9815 11.3798 15.6748 10.6236C13.8402 9.56201 12.2001 8.36675 10.4708 7.16322C8.3248 5.66965 5.80017 4.64465 3.77661 2.98962C3.54036 2.7964 3.28821 2.6941 3.03718 2.52975C2.6756 2.29302 4.05478 2.49711 4.13094 2.51095C5.17524 2.70078 6.21025 2.91105 7.26193 3.06403C7.99033 3.16999 8.80243 3.07586 9.49805 3.20025C10.765 3.42679 6.9769 2.69031 5.70963 2.46539C4.82377 2.30817 3.94525 1.97219 3.04141 1.92646C2.73422 1.91091 2.43736 1.95862 2.14044 1.93087C1.74434 1.89386 2.04474 2.42464 2.0988 2.59349C2.40258 3.54226 2.71552 4.48058 2.89114 5.46446C2.9774 5.94767 3.58174 11.425 3.99578 11.2925" stroke="#FF4800" stroke-width="3" stroke-linecap="round"/>
</svg>
