<svg width="20" height="20" viewBox="0 0 20 20" fill="none" xmlns="http://www.w3.org/2000/svg">
<rect x="0.5" y="0.5" width="19" height="19" stroke="black"/>
<path d="M10.9796 7.97065C10.7575 6.93868 10.4806 6.246 9.49513 5.69639C7.75958 4.72849 6.3307 5.73007 5.22816 7.1114C4.42649 8.11579 3.6084 9.45707 3.6084 10.8007C3.6084 12.3732 5.01446 13.4621 6.32873 14.0109C8.62702 14.9708 11.8796 14.5775 13.8243 12.9908C14.6312 12.3324 15.0326 11.4825 15.0747 10.435C15.1381 8.85736 14.6441 6.85637 13.2904 5.87921C10.4273 3.81235 6.19898 6.83502 4.80403 9.35275C4.35639 10.1607 4.18843 11.1542 4.69799 11.9853C5.41073 13.1479 7.00236 13.4252 8.23734 13.4552C9.63827 13.4892 11.1219 13.2977 12.4312 12.7824C13.4919 12.365 14.8284 11.4696 14.9321 10.201C15.005 9.30893 14.3627 8.56838 13.5464 8.28509C12.1619 7.80464 10.5153 8.48327 9.31231 9.13337C8.69165 9.46876 7.74963 10.001 7.47317 10.7166C7.13689 11.5869 8.32949 11.9478 8.93571 12.0255C9.68376 12.1214 10.4819 12.023 11.2136 11.861C11.6162 11.7719 13.0069 11.4898 13.1222 10.9323C13.1901 10.6045 12.437 10.9232 12.1241 11.042C11.3357 11.3414 10.4989 11.7505 9.89002 12.3473C9.69425 12.5392 9.31685 12.9556 9.41469 13.287C9.51657 13.6321 10.1974 13.3872 10.3727 13.2943C10.7568 13.0906 11.0015 12.7313 11.1734 12.3436C11.2755 12.1134 11.587 11.328 11.0783 11.287C10.1416 11.2114 9.77642 12.6569 10.0801 13.3162C10.3605 13.9249 11.1028 14.2566 11.678 14.5082C12.0001 14.6492 11.9955 14.5976 12.0985 14.2888" stroke="black" stroke-width="2" stroke-linecap="round"/>
</svg>
