<svg width="175" height="57" viewBox="0 0 175 57" fill="none" xmlns="http://www.w3.org/2000/svg">
<g clip-path="url(#clip0_1012_159)">
<path d="M13.6139 29.0412C13.6654 29.1165 13.7422 29.1737 13.8322 29.204C13.9222 29.2343 14.0205 29.2358 14.1115 29.2084C14.4567 29.1122 14.8239 29.1079 15.1715 29.1961C15.3595 29.2269 15.5528 29.2136 15.7339 29.1573C16.0546 29.0862 16.3466 28.9302 16.5749 28.7081C16.8833 28.4451 17.2091 28.2004 17.5503 27.9755C17.8372 27.7617 18.1159 27.5371 18.4079 27.3265C18.9055 26.9625 19.4562 26.6387 19.9207 26.2345C20.5274 25.6876 21.1947 25.2027 21.9113 24.7878C23.0725 24.1341 24.2253 23.4464 25.3766 22.7741C25.8161 22.5155 26.2458 22.2428 26.6837 21.9764C26.7039 22.1368 26.7144 22.2982 26.7152 22.4597C26.7003 22.7618 26.6588 23.0622 26.6406 23.3643C26.6518 23.4438 26.6729 23.5217 26.7036 23.5966C26.7564 23.7392 26.7893 23.8876 26.8015 24.0381C26.7849 24.3726 26.6953 24.7088 26.7053 25.0418C26.7136 25.2974 26.8048 25.5452 26.6339 25.7899C26.5974 25.8411 26.6339 25.9448 26.6339 26.0145C26.6819 26.2656 26.7063 26.52 26.7069 26.775C26.6621 27.2397 26.541 27.7044 26.5029 28.1691C26.4896 28.3472 26.5941 28.6617 26.7119 28.6927C27.0105 28.7701 27.1067 28.9777 27.266 29.1573C27.3821 29.2905 27.5679 29.4408 27.7337 29.2813C28.0174 29.0056 28.3226 29.0226 28.6809 29.0752C28.9043 29.0872 29.1283 29.0658 29.3444 29.0117C29.8421 28.9343 30.1092 28.547 30.4691 28.2884C31.1924 27.7664 31.8974 27.2227 32.6123 26.6914C33.0348 26.3816 33.4616 26.0718 33.8929 25.762C34.4818 25.3454 35.0707 24.9287 35.6678 24.5229C36.1655 24.1775 36.6847 23.8414 37.1973 23.5068C37.5456 23.2791 37.899 23.0591 38.307 22.8005C38.3185 22.8842 38.324 22.9685 38.3236 23.0529C38.2606 23.4959 38.1975 23.9405 38.1262 24.3835C38.0433 24.8962 37.9388 25.4058 37.8658 25.92C37.826 26.2097 37.8525 26.5055 37.6999 26.7797C37.6734 26.8262 37.7331 26.9098 37.7314 26.9749C37.7314 27.297 37.7314 27.6208 37.6883 27.9383C37.6617 28.1397 37.617 28.3225 37.8061 28.4712C38.0409 28.6365 38.2658 28.8138 38.4795 29.0024C38.6703 29.1914 38.8113 29.2069 39.0253 29.0334C39.1157 28.9566 39.2349 28.9159 39.3571 28.9203C39.6212 28.9778 39.8959 28.9787 40.1605 28.9229C40.4251 28.8671 40.6727 28.7561 40.8848 28.5982C41.0639 28.4779 41.2335 28.3459 41.3924 28.2032C41.6976 27.9027 41.9647 27.5635 42.2865 27.2738C42.5718 27.0229 42.9169 26.8324 43.2271 26.6062C43.7645 26.2159 44.2738 25.7884 44.8345 25.4306C45.6954 24.8791 46.5961 24.3788 47.4703 23.8429C48.0891 23.4634 48.6879 23.0576 49.295 22.6703C49.65 22.4473 50.0166 22.2397 50.4728 21.9687C50.4927 22.6177 50.6138 23.2171 50.4993 23.7732C50.3683 24.4191 50.5939 25.0402 50.4761 25.6691C50.4295 25.8161 50.4238 25.9718 50.4595 26.1214C50.6834 26.6496 50.4943 27.1809 50.5159 27.7075C50.5159 27.8221 50.5872 27.9894 50.5308 28.039C50.2588 28.2791 50.428 28.5502 50.428 28.8135C50.428 29.2503 50.3567 29.7118 50.7133 30.0712C50.9074 30.2664 51.138 30.5545 51.3652 30.5669C51.697 30.5823 52.0287 30.3841 52.3605 30.2757C52.8001 30.6335 53.6212 30.4553 53.8767 29.9442C54.1023 29.4919 54.23 28.9916 54.6331 28.6291C54.681 28.592 54.7138 28.5406 54.726 28.4835C54.7426 28.1273 54.7641 27.771 54.7525 27.4148C54.7359 26.9362 54.6596 26.456 54.6629 25.9774C54.6629 25.3578 54.8288 24.7382 54.5982 24.1279C54.58 24.0799 54.6132 24.0164 54.6215 23.9606C54.6642 23.7562 54.6908 23.5491 54.7011 23.341C54.6928 22.8469 54.6331 22.3528 54.6364 21.8587C54.6364 21.2825 54.7127 20.7078 54.7144 20.1332C54.7144 19.6267 54.6464 19.1202 54.6347 18.6121C54.6248 18.1614 54.6546 17.7075 54.658 17.2552C54.658 17.1484 54.57 17.0291 54.6016 16.9454C54.7177 16.6054 54.7461 16.2444 54.6845 15.8922C54.6463 15.6614 54.7227 15.4167 54.7227 15.1781C54.7227 14.4702 54.6978 13.7624 54.7028 13.0545C54.7028 12.6208 54.7426 12.1855 54.7625 11.7518C54.7625 11.705 54.7575 11.6583 54.7475 11.6124C54.6839 11.316 54.6374 11.0167 54.6082 10.7156C54.5949 10.4058 54.6546 10.0867 54.6613 9.77228C54.6696 9.33393 54.7741 8.90023 54.6331 8.45878C54.5436 8.22046 54.5264 7.9637 54.5833 7.71683C54.7359 7.25214 54.4722 6.78748 54.7177 6.34293C54.726 6.32899 54.6895 6.29647 54.6812 6.27014C54.653 6.19579 54.6281 6.123 54.6032 6.04865L54.5833 5.98822L54.6646 5.95725C54.94 6.15396 55.2103 6.35998 55.494 6.54895C55.9485 6.851 56.4063 7.14992 56.8625 7.44886C57.0914 7.59756 57.3198 7.7468 57.5476 7.89653L57.6621 7.97397C57.828 8.0886 57.9938 8.20785 58.1763 8.31008C58.2675 8.36275 58.3604 8.41076 58.4533 8.46498C58.6093 8.54397 58.7668 8.61988 58.9195 8.70507C58.9941 8.74534 59.0687 8.79028 59.1417 8.83365C59.417 9.01191 59.704 9.17382 60.001 9.31845C60.2813 9.44391 60.5617 9.56937 60.8387 9.69793C60.978 9.76144 61.1174 9.8265 61.2551 9.8931C61.9526 10.2163 62.6187 10.5957 63.2456 11.0269C63.5359 11.2314 63.8362 11.4219 64.1381 11.6109L64.44 11.8014C64.5876 11.8959 64.7386 11.9857 64.8895 12.0771C65.0405 12.1685 65.1881 12.2614 65.3291 12.3637C65.5813 12.5433 65.8268 12.7432 66.0806 12.9073C66.2106 12.9904 66.3489 13.0615 66.4936 13.1196C66.6431 13.1806 66.8012 13.2213 66.963 13.2404C66.9792 13.2429 66.9948 13.2475 67.0095 13.2543L67.0543 13.2807C67.0841 13.3023 67.114 13.3271 67.1405 13.3488C67.2965 13.4712 67.4391 13.6121 67.605 13.7221C67.8389 13.877 68.1027 13.9932 68.3283 14.1604C68.9918 14.6515 69.6404 15.1595 70.2973 15.6583C70.3636 15.7078 70.4316 15.7574 70.5013 15.8054L70.5776 15.8565L70.6556 15.9092C70.7617 15.9805 70.8679 16.0517 70.9707 16.1261L70.9907 16.14C71.0636 16.1927 71.135 16.2469 71.2013 16.3042C71.2871 16.3755 71.3664 16.4532 71.4385 16.5365C71.7935 16.9563 72.2679 17.2134 72.7059 17.4907C73.4905 17.9786 74.3647 18.338 75.1145 18.8847C75.705 19.3091 76.3884 19.622 77.0304 19.9845C77.1797 20.0697 77.3207 20.1704 77.4766 20.2432C77.9361 20.46 78.3989 20.6691 78.8617 20.8751C79.1935 21.03 79.5352 21.1586 79.867 21.3088C80.1689 21.4436 80.4658 21.5892 80.7611 21.7348C80.7787 21.7449 80.7937 21.7584 80.8052 21.7744C80.8166 21.7905 80.8242 21.8087 80.8274 21.8277C80.8683 22.1878 80.8855 22.5499 80.8788 22.912C80.854 23.3318 80.7296 23.7469 80.713 24.1666C80.6931 24.6313 80.7594 25.0883 80.766 25.5498C80.776 26.2995 80.776 27.0487 80.766 27.7974C80.766 28.0158 80.6897 28.2373 80.7096 28.4526C80.7461 28.829 80.8291 29.2023 80.8921 29.5771C80.8979 29.6151 80.8979 29.6537 80.8921 29.6917C80.7942 30.2153 81.0315 30.5932 81.5556 30.745C81.6034 30.7572 81.654 30.7544 81.7 30.7373C81.9903 30.6257 82.2855 30.522 82.5642 30.3887C82.6171 30.3545 82.6815 30.3392 82.7455 30.3457C82.8095 30.3523 82.8688 30.3802 82.9126 30.4244C83.2808 30.6923 83.5595 30.759 83.8382 30.4445C84.0188 30.2304 84.1771 30.0006 84.3109 29.7583C84.4984 29.4392 84.6643 29.1093 84.8285 28.781C84.861 28.6943 84.8783 28.6032 84.8799 28.5114C84.8882 28.4309 84.8534 28.3333 84.8899 28.2713C85.069 27.974 84.9529 27.6517 84.9612 27.3528C84.9761 26.8184 84.9147 26.2825 84.9164 25.7481C84.9164 25.2927 84.9678 24.8373 84.9877 24.3819C85.006 23.9653 85.0292 23.547 85.0226 23.1304C85.0143 22.5433 84.9794 21.9563 84.9579 21.3677C84.9429 20.9712 84.9181 20.5715 84.9264 20.175C84.9363 19.6546 84.9711 19.1357 84.991 18.6152C84.991 18.5471 84.991 18.4804 84.9993 18.4123C85.0093 18.0886 85.011 17.7664 85.011 17.4427V17.1205C85.011 17.0694 85.011 17.0183 85.011 16.9656C85.011 16.8107 84.9977 16.6558 84.996 16.5009C84.996 16.1633 84.996 15.8245 84.996 15.4848C84.996 15.4616 84.996 15.4399 84.996 15.4167C84.996 15.3485 85.0043 15.2803 85.0076 15.2106C85.0076 15.1657 85.0076 15.1208 85.0159 15.0743C85.0242 15.0278 85.0159 14.9845 85.0159 14.9396C85.0027 14.7847 84.9844 14.6205 84.9628 14.4517C84.9413 14.2828 84.9164 14.1093 84.8915 13.9157L86.1307 14.7738L86.5271 15.0511C86.8956 15.3364 87.2793 15.6041 87.6767 15.8534C88.5625 16.3537 89.4781 16.8076 90.3722 17.2955C90.558 17.3962 90.7405 17.5031 90.923 17.6053C91.2265 17.785 91.5251 17.9693 91.8287 18.149L91.8784 18.1862C91.8934 18.1985 91.9083 18.2094 91.9232 18.2233L91.968 18.2605L92.265 18.5006C92.4308 18.6354 92.5967 18.7686 92.7626 18.8909C93.1508 19.1666 93.5539 19.4238 93.947 19.6933C94.0266 19.7475 94.1129 19.8002 94.1825 19.8482C94.6603 20.1858 95.1181 20.5467 95.5925 20.8844C95.7995 21.0262 96.0155 21.156 96.2395 21.2732C96.6923 21.5164 97.1535 21.7472 97.6047 21.9919C97.9746 22.1948 98.3279 22.4256 98.7045 22.6115C99.5903 23.0607 100.486 23.4929 101.375 23.9359C101.657 24.0768 101.931 24.2332 102.213 24.3742C102.545 24.5384 102.876 24.684 103.208 24.8528C103.507 25.0077 103.792 25.1796 104.087 25.3361C104.514 25.5607 104.95 25.7713 105.375 26.0006C105.836 26.2515 106.284 26.5272 106.75 26.775C107.277 27.0508 107.841 27.2738 108.354 27.5743C109.004 27.9585 109.618 28.3953 110.243 28.8135C110.409 28.9204 110.537 29.0598 110.701 29.1604C111.34 29.5477 111.973 29.9442 112.632 30.2989C113.018 30.508 113.431 30.8131 113.899 30.4104C113.929 30.3841 113.997 30.3918 114.049 30.3934C114.307 30.4042 114.566 30.4275 114.826 30.4306C115.296 30.4306 115.807 30.2664 115.928 29.9179C116.094 29.4237 116.303 28.9606 116.726 28.6896C116.538 28.1257 116.369 27.6053 116.19 27.0709L116.009 27.1855C115.919 27.0517 115.812 26.9289 115.689 26.82C115.336 26.583 114.963 26.3723 114.601 26.1478C114.286 25.951 114.002 25.6614 113.657 25.5669C113.052 25.4012 112.65 25.0325 112.25 24.6375C112.178 24.5683 112.098 24.5069 112.011 24.4547C111.729 24.2766 111.443 24.1031 111.157 23.9297C110.825 23.7314 110.517 23.513 110.174 23.3457C109.83 23.1784 109.487 23.1133 109.17 22.9507C108.694 22.7044 108.249 22.4039 107.778 22.1453C107.433 21.9563 107.072 21.7921 106.712 21.6279C106.545 21.5799 106.382 21.522 106.224 21.4544C106.109 21.3832 105.997 21.3073 105.892 21.2314L105.64 21.0564L105.532 20.982L105.298 20.8271L105.2 20.7652C105.098 20.6986 104.991 20.6335 104.884 20.5746C104.839 20.5514 104.794 20.525 104.751 20.4972C104.446 20.3082 104.15 20.0774 103.756 20.1301C103.666 20.0294 103.608 19.907 103.507 19.859C103.009 19.6205 102.511 19.3943 102.001 19.179C101.855 19.1155 101.669 19.1202 101.538 19.0427C101.407 18.9653 101.297 18.8956 101.176 18.8228C100.761 18.5719 100.347 18.3147 99.9353 18.0622C99.8911 18.0388 99.8444 18.0196 99.796 18.0049C99.7475 17.9912 99.7008 17.9725 99.6566 17.9492C99.5372 17.8764 99.4194 17.802 99.3016 17.7277C99.1059 17.6038 98.9102 17.4798 98.7094 17.3621C98.3163 17.1298 97.817 16.9826 97.5483 16.6651C97.4483 16.5524 97.3372 16.4486 97.2165 16.3553C97.1568 16.3088 97.0954 16.2655 97.034 16.2237C96.7238 16.0145 96.3888 15.8457 96.0985 15.6149C95.6406 15.2525 95.1413 14.9349 94.6603 14.5973C94.4599 14.4372 94.2476 14.2907 94.025 14.1589C93.9238 14.1078 93.8193 14.0582 93.7164 14.004C93.5074 13.908 93.2967 13.8166 93.0844 13.7267C92.9799 13.6803 92.8737 13.6354 92.7692 13.5873C92.6955 13.5629 92.6257 13.529 92.5619 13.4866C92.4358 13.386 92.3164 13.2745 92.1936 13.1691C92.0752 13.061 91.947 12.9625 91.8104 12.8748C91.7059 12.8113 91.5998 12.7509 91.4919 12.6921C91.1602 12.5186 90.8284 12.3637 90.5166 12.1793C90.2661 12.0337 90.0322 11.8696 89.7966 11.7007L89.5578 11.5458C89.1198 11.2577 88.6803 10.9696 88.2307 10.6862C88.1378 10.6258 88.0433 10.5638 87.9487 10.5049C87.7497 10.3795 87.5572 10.2463 87.3615 10.1177L87.1641 9.98915C86.9018 9.81717 86.6244 9.66636 86.3347 9.53839C86.071 9.40831 85.8157 9.26405 85.57 9.10626C85.5418 9.09077 85.5152 9.07373 85.487 9.05979C85.1337 8.87391 84.7737 8.69731 84.4071 8.53467C84.3546 8.51325 84.2985 8.50066 84.2413 8.4975C84.1799 8.4975 84.1169 8.49753 84.0571 8.48979C83.9327 8.48979 83.81 8.48979 83.6557 8.48979C83.6258 8.544 83.5927 8.65705 83.5462 8.74069C83.5376 8.76266 83.5241 8.78269 83.5067 8.7995C83.4893 8.81631 83.4683 8.82954 83.445 8.8383C83.3359 8.86468 83.2251 8.88483 83.1133 8.89869C82.9949 8.91568 82.8741 8.90987 82.7583 8.88163C82.6842 8.86246 82.6156 8.82808 82.5576 8.78097C82.3552 8.61678 82.2557 8.65704 82.1296 8.84446L81.9803 8.67565L81.9388 8.62762C81.904 8.65396 81.8675 8.6896 81.8343 8.72058C81.7796 8.77324 81.7282 8.81813 81.6933 8.80884C81.6398 8.7902 81.5809 8.7902 81.5274 8.80884C81.4965 8.82294 81.4723 8.84724 81.4594 8.87702C81.4463 8.90489 81.4363 8.93393 81.4296 8.96373C81.4261 8.9771 81.4211 8.99008 81.4146 9.00246C81.3993 9.04003 81.369 9.07058 81.33 9.08766C81.2792 9.0963 81.2311 9.11536 81.189 9.14344C81.1699 9.15679 81.1521 9.1718 81.136 9.18832C81.1039 9.22045 81.0766 9.25642 81.0547 9.29523C81.0276 9.34452 81.0064 9.39647 80.9916 9.45012C80.9676 9.53599 80.9509 9.62352 80.9419 9.71189C80.9275 9.84102 80.9214 9.97085 80.9236 10.1007C80.9236 10.175 80.9236 10.2556 80.9236 10.3222C80.9236 10.3655 80.9236 10.4089 80.9236 10.4523C80.9236 10.5313 80.9236 10.6072 80.9236 10.6877C80.9236 10.7079 80.9236 10.728 80.9236 10.7481C80.9201 10.9336 80.8596 11.1142 80.7495 11.2686C80.7383 11.2839 80.7294 11.3006 80.7229 11.3181C80.6896 11.3984 80.6765 11.4848 80.6848 11.5706C80.698 11.741 80.7163 11.9129 80.7345 12.0833C80.7478 12.2165 80.7594 12.3482 80.7743 12.4814C80.7893 12.6146 80.8059 12.7912 80.8208 12.9368C80.8227 12.9918 80.8188 13.0467 80.8092 13.101C80.8092 13.1226 80.8092 13.1428 80.8092 13.1645C80.8092 13.2791 80.7926 13.3953 80.781 13.5115C80.768 13.6267 80.7625 13.7426 80.7644 13.8584C80.7651 13.9333 80.7734 14.008 80.7893 14.0815C80.8332 14.3 80.8527 14.5221 80.8473 14.7444C80.8473 15.0728 80.7976 15.4012 80.7594 15.7295C80.7461 15.838 80.7345 15.9479 80.7262 16.0564C80.7061 16.2748 80.7033 16.4943 80.7179 16.7131V16.7131C80.7179 16.7131 80.703 16.7255 80.6765 16.7472C80.6337 16.7433 80.5917 16.7334 80.5521 16.7178C80.1539 16.487 79.7575 16.2531 79.361 16.0176C78.9646 15.7822 78.598 15.553 78.2098 15.3408C78.17 15.3175 78.1285 15.2974 78.0887 15.2772C77.8847 15.1719 77.6724 15.0805 77.4783 14.9674C77.2162 14.8125 76.969 14.6267 76.7119 14.4594C76.6256 14.4036 76.546 14.3494 76.4515 14.3045C75.9157 13.9947 75.3583 13.7205 74.8209 13.4154C74.5843 13.2807 74.3621 13.1251 74.1573 12.9507C74.1162 12.9175 74.0774 12.8818 74.0412 12.8438C73.9367 12.7416 73.8405 12.6316 73.7376 12.5341C73.6915 12.4873 73.6428 12.4429 73.5917 12.4009C73.1853 12.0725 72.7772 11.7441 72.3592 11.4281C72.2215 11.3228 72.0805 11.2175 71.9395 11.1183C71.7222 10.9634 71.4966 10.8085 71.276 10.6645C71.0553 10.5204 70.8181 10.3748 70.5892 10.2308C70.3122 10.0542 70.0252 9.88848 69.7382 9.72274C69.4994 9.58488 69.2406 9.46715 69.015 9.31845C68.8292 9.19763 68.6484 9.06908 68.4659 8.94051C68.171 8.72082 67.86 8.5205 67.5353 8.34105C67.0466 8.07964 66.5762 7.78942 66.127 7.47212L65.6758 7.16233C65.417 6.9811 65.1466 6.81536 64.8713 6.65582C64.5959 6.49628 64.3156 6.34603 64.0419 6.19114C63.5824 5.9464 63.093 5.75433 62.6269 5.52353C62.4776 5.44918 62.3316 5.36864 62.1857 5.29274C62.0397 5.21684 61.8539 5.11152 61.688 5.02323C61.6117 4.98296 61.5337 4.94268 61.4574 4.90551C61.4215 4.88781 61.3844 4.87228 61.3463 4.85903C61.1804 4.79398 61.0145 4.74596 60.8586 4.67006L60.7956 4.63909C60.5584 4.49814 60.361 4.29833 60.132 4.14344C60.0847 4.11588 60.0315 4.09841 59.9761 4.09231C59.9481 4.08829 59.9204 4.08262 59.8932 4.07529C59.867 4.06858 59.8423 4.05754 59.8202 4.04273C59.7173 3.97303 59.6211 3.89559 59.5233 3.81659C59.4254 3.7376 59.3325 3.6617 59.2313 3.58425L58.6424 3.15054C58.3107 2.90271 57.9717 2.65798 57.6256 2.41634C57.5742 2.37917 57.5211 2.34355 57.468 2.30792C57.0964 2.05545 56.7149 1.81693 56.3533 1.55361C56.1642 1.41575 56.0033 1.24382 55.8307 1.08892C55.7732 1.0375 55.7129 0.988869 55.6499 0.943295C55.484 0.820928 55.3182 0.703239 55.144 0.587068C54.9217 0.432173 54.6961 0.28655 54.4722 0.137851L54.3527 0.0573031L54.3129 0.0325336L54.2698 0.0108272C54.2439 -0.000409124 54.2153 -0.00518671 54.1869 -0.00308907C54.0674 0.021694 53.9513 0.0480291 53.8335 0.0774591L53.4835 0.165722C53.4271 0.179662 53.3724 0.199811 53.3176 0.216849C53.2636 0.236082 53.2082 0.25162 53.1518 0.263325C52.8485 0.299034 52.5408 0.278522 52.246 0.202933C52.1697 0.190541 52.0951 0.179668 52.0188 0.171924C51.7867 0.139225 51.5494 0.171584 51.337 0.264875V0.264875C51.3138 0.264875 51.274 0.2463 51.2425 0.238555C51.2242 0.292768 51.2176 0.343874 51.1993 0.384147C51.1944 0.396779 51.1877 0.408752 51.1794 0.41977C51.1479 0.458493 51.1181 0.497218 51.0899 0.537491C50.8864 0.812406 50.766 1.13346 50.7415 1.46686C50.7199 1.75341 50.705 2.04307 50.6669 2.32808C50.6586 2.39314 50.6503 2.45974 50.6387 2.5248C50.5972 2.76489 50.3948 3.00029 50.4147 3.22644C50.4877 4.04118 50.3102 4.87297 50.6138 5.67068C50.6225 5.70834 50.6196 5.74754 50.6055 5.78375C50.4894 6.1493 50.4048 6.50713 50.5441 6.89281C50.5922 7.02912 50.4777 7.21035 50.4943 7.3575C50.5507 7.83922 50.6602 8.31782 50.4943 8.80109C50.4843 8.86684 50.4843 8.9336 50.4943 8.99936C50.4943 9.25648 50.4943 9.51206 50.5109 9.77383C50.5358 10.3392 50.564 10.9061 50.5922 11.4777C50.5922 11.552 50.6436 11.6512 50.6105 11.6992C50.3334 12.0895 50.5391 12.5248 50.4711 12.9383C50.4247 13.2141 50.5176 13.5099 50.5275 13.7964C50.5275 13.9064 50.4495 14.0195 50.4545 14.1279C50.4728 14.5136 50.5275 14.9024 50.5408 15.2819C50.5607 15.8256 50.5607 16.3661 50.5623 16.9114C50.5573 16.988 50.5371 17.0631 50.5026 17.1329C50.4114 17.3342 50.2439 17.4055 50.0166 17.4829C49.519 17.6502 49.2386 18.0948 48.7874 18.3597C48.099 18.767 47.4604 19.2503 46.7039 19.5585C46.2411 19.7506 45.9243 20.0836 45.5428 20.3609C45.3553 20.5003 45.1894 20.714 44.9771 20.7667C44.7532 20.8138 44.5413 20.9016 44.3538 21.0252C44.1662 21.1488 44.0065 21.3057 43.884 21.487C43.7181 21.5117 43.5937 21.4978 43.5157 21.5505C43.2669 21.7177 43.038 21.9129 42.7958 22.0895C42.756 22.1189 42.6896 22.1143 42.5951 22.1329C42.6282 22.0089 42.6564 21.9207 42.6747 21.8231C42.7593 21.4142 42.8555 21.0083 42.9185 20.5963C42.9816 20.1843 42.97 19.7723 43.0595 19.3726C43.1509 19.0143 43.1166 18.638 42.9617 18.2992C42.9164 18.1754 42.8869 18.047 42.8737 17.9166C42.8157 17.5712 42.5569 17.057 42.0626 17.0446C41.9802 17.0281 41.9013 16.9993 41.8287 16.9594C41.7807 17.0819 41.6905 17.186 41.5721 17.2553C41.4538 17.3246 41.3141 17.3551 41.1751 17.342C41.0092 17.3296 40.8317 17.2568 40.7007 17.3064C40.4121 17.4132 40.2246 17.4055 40.1466 17.026C39.8928 17.1809 39.6689 17.2986 39.4616 17.4442C39.2542 17.5898 39.0452 17.8981 38.813 17.9244C38.3153 17.9771 38.161 18.4464 37.7298 18.544C37.6214 18.5674 37.5235 18.6215 37.4494 18.6989C37.1624 19.0272 36.7676 19.1992 36.3712 19.3711C36.1797 19.4458 35.9945 19.5338 35.8171 19.6344C35.575 19.7893 35.3759 20.0449 35.1138 20.113C34.8517 20.1812 34.6742 20.3888 34.4088 20.4708C34.1434 20.5529 33.9112 20.7807 33.6607 20.9526C33.5396 21.0362 33.3671 21.0951 33.3107 21.2066C33.1863 21.4451 32.9424 21.5164 32.7434 21.6434C32.6271 21.7253 32.5163 21.8137 32.4116 21.9083C32.2606 22.0384 32.118 22.1778 31.9604 22.3017C31.753 22.4566 31.5424 22.6254 31.3201 22.7664C31.1639 22.8495 31.0014 22.9219 30.8341 22.9832C30.8341 22.4721 30.8341 22.0446 30.8341 21.6186C30.8341 21.236 30.8225 20.855 30.8341 20.4739C30.8341 20.2478 30.9037 20.0201 30.8921 19.7955C30.8689 19.3185 30.8258 18.8413 30.7677 18.3674C30.7047 17.8392 30.63 17.3079 30.1457 16.9594C30.0604 16.9714 29.9736 16.9519 29.9035 16.9052C29.6049 16.5845 29.6099 16.5799 29.3013 16.8897L29.0392 16.758C29.0127 17.0275 28.8584 17.0678 28.6262 17.0431C28.4063 17.0424 28.1869 17.0616 27.9709 17.1003C27.8183 16.8525 27.5546 16.7596 27.3074 16.9129C26.9276 17.1561 26.5676 17.4272 26.1944 17.6796C26.0764 17.7573 25.9528 17.8272 25.8244 17.8888C25.5773 18.0111 25.4578 18.2807 25.1228 18.3225C24.7877 18.3643 24.5969 18.6509 24.2668 18.7469C24.1159 18.7903 23.9201 18.9916 23.7692 19.131C23.4026 19.478 22.9398 19.6298 22.5035 19.8621C22.3376 19.952 22.1817 20.0542 22.0058 20.1595C21.7637 20.0867 21.0404 20.491 20.9309 20.7187C20.8239 20.755 20.7216 20.8023 20.6257 20.8596C20.488 20.9727 20.3802 21.1199 20.2342 21.219C19.7366 21.5613 19.2107 21.8912 18.6949 22.2227C18.4991 22.3497 18.2934 22.4643 18.0977 22.5898C17.8008 22.7788 17.4624 22.9337 17.2218 23.1722C16.6678 23.7267 15.996 24.1465 15.3971 24.6406C15.2872 24.7498 15.1616 24.8441 15.0239 24.921C14.494 25.1602 14.0138 25.4854 13.6056 25.8813C13.4729 25.9989 13.3732 26.1452 13.3153 26.3073C13.2575 26.4693 13.2432 26.6422 13.2738 26.8107C13.3468 27.2382 13.3485 27.661 13.0748 28.0158C13.0318 28.0565 12.9986 28.1054 12.9774 28.1591C12.9563 28.2128 12.9477 28.2702 12.9523 28.3272C12.9569 28.3843 12.9744 28.4398 13.0039 28.49C13.0333 28.5402 13.0739 28.584 13.1229 28.6183C13.2989 28.7463 13.4631 28.8877 13.6139 29.0412V29.0412Z" fill="white"/>
<path d="M174.949 42.596C174.856 42.3079 174.811 42.0074 174.743 41.7007L174.592 41.7735C174.411 41.5892 174.26 41.4296 174.104 41.2856C174.078 41.2623 173.953 41.2856 173.919 41.3228C173.696 41.5659 173.436 41.7115 173.089 41.6325C172.782 41.5628 172.376 41.8184 172.227 41.3971C171.956 41.6796 171.661 41.9417 171.346 42.1808C171.118 42.3357 170.875 42.6456 170.516 42.3729L169.772 42.8175C169.747 42.833 169.705 42.8593 169.689 42.85C169.412 42.6951 169.176 42.9383 168.914 42.9197C168.819 42.9119 168.702 42.8779 168.632 42.9197C168.3 43.1009 167.882 43.008 167.584 43.2574C167.562 43.2744 167.492 43.2341 167.446 43.231C167.348 43.2134 167.247 43.2134 167.149 43.231C166.666 43.3782 166.188 43.5408 165.671 43.7097L165.517 43.5455C165.367 43.9404 165.009 43.9652 164.664 43.9745C164.319 43.9838 164.001 44.1108 163.777 43.9637L163.279 43.9374C163.179 44.0117 163.035 44.0319 162.932 44.1031C162.766 44.2131 162.6 44.1031 162.488 44.1372C162.1 44.241 161.738 44.2921 161.363 44.1186C161.318 44.0984 161.249 44.1186 161.189 44.1325C161.042 44.1589 160.892 44.1754 160.743 44.1821C160.374 44.1728 160.008 44.1496 159.641 44.1263C159.437 44.1139 159.153 44.1589 159.047 44.0551C158.827 43.8336 158.716 43.9157 158.575 44.0179L158.014 43.9792C157.972 43.798 157.805 43.8119 157.601 43.9048C157.518 43.942 157.398 44.0024 157.335 43.9745C156.838 43.7546 156.352 43.9745 155.867 44.0071C155.623 44.0287 155.421 44.038 155.239 43.8924C154.983 43.6895 154.683 43.7778 154.424 43.8181C154.2 43.8522 154.016 43.9327 153.893 43.7484C153.736 43.7778 153.562 43.8614 153.494 43.8119C153.22 43.6059 152.949 43.4758 152.591 43.5919C152.563 43.5939 152.534 43.5889 152.508 43.5775C152.482 43.5661 152.46 43.5487 152.444 43.5269C152.321 43.3085 152.133 43.4045 151.959 43.4277C151.89 43.4421 151.819 43.4474 151.748 43.4433C151.566 43.4216 151.384 43.3828 151.199 43.3627C151.065 43.3488 150.926 43.3627 150.791 43.3441C150.528 43.3054 150.266 43.2465 150.002 43.2047C149.551 43.1304 149.099 43.0637 148.658 42.9956C148.365 43.2744 147.937 43.2837 147.786 43.1056C147.607 43.0964 147.429 43.0757 147.253 43.0436C147.129 43.0095 147.019 42.8887 146.901 42.8794C146.568 42.897 146.235 42.8391 145.931 42.7106C145.872 42.6922 145.809 42.6863 145.747 42.6935C145.498 42.6935 145.249 42.6935 145 42.6935C144.981 42.6908 144.963 42.6837 144.947 42.6729C144.932 42.6621 144.919 42.648 144.911 42.6316C144.841 42.4271 144.694 42.4937 144.534 42.5139C144.121 42.5681 143.692 42.7276 143.318 42.3946C143.143 42.5309 142.987 42.6579 142.769 42.4752C142.62 42.3828 142.459 42.3079 142.29 42.2521L141.932 42.4891L141.744 42.2335L141.459 42.4024C141.293 42.201 141.127 42.0926 140.877 42.266C140.855 42.2793 140.831 42.2883 140.805 42.2923C140.78 42.2963 140.754 42.2953 140.729 42.2893C140.413 42.1995 140.084 42.1591 139.754 42.17C139.729 42.17 139.704 42.1375 139.677 42.1313C139.552 42.0958 139.425 42.0669 139.296 42.0445C139.226 42.0353 139.118 42.0879 139.088 42.0585C139.053 42.018 139.009 41.985 138.959 41.9616C138.909 41.9382 138.855 41.925 138.799 41.9228C138.743 41.9206 138.687 41.9295 138.635 41.9489C138.584 41.9683 138.537 41.9977 138.498 42.0352C138.42 41.9671 138.372 41.8912 138.304 41.8695C137.834 41.7146 137.309 41.8571 136.856 41.6124C136.841 41.6124 136.814 41.6124 136.794 41.6124C136.673 41.5969 136.552 41.5799 136.429 41.5659C136.321 41.5408 136.209 41.5293 136.098 41.5318C135.932 41.5566 135.391 41.3522 135.268 41.2701C135.11 41.1878 134.939 41.1312 134.761 41.1028C134.701 41.0888 134.595 41.1477 134.566 41.1214C134.275 40.8952 133.979 40.9665 133.674 41.0827C133.639 41.0966 133.581 41.0517 133.535 41.0501C133.369 41.0501 133.203 41.0501 133.014 41.0501L132.863 40.7853L132.697 40.9138C132.561 40.8193 132.466 40.7032 132.354 40.6846C131.951 40.618 131.541 40.5839 131.134 40.539C130.882 40.5126 130.784 40.3841 130.939 40.209C131.095 40.0664 131.278 39.9519 131.479 39.8714C132.342 39.4361 133.22 39.0272 134.066 38.5703C134.577 38.2807 135.069 37.9631 135.54 37.6192C136.121 37.2134 136.632 36.7472 136.914 36.0951C137.053 35.8296 137.207 35.5711 137.375 35.3206C137.418 35.2303 137.44 35.1327 137.44 35.034C137.441 34.9298 137.43 34.8258 137.405 34.7242C137.355 34.4996 137.372 34.2069 137.224 34.0706C136.968 33.8336 136.912 33.3797 136.411 33.3906L136.184 33.674L136.152 33.5641C135.964 33.542 135.775 33.5306 135.585 33.53C135.419 33.5377 135.253 33.609 135.087 33.6183C134.789 33.6353 134.465 33.561 134.197 33.6462C133.808 33.7529 133.408 33.8204 133.004 33.8475C132.561 33.9002 132.128 34.1666 131.737 34.4067C131.345 34.6468 130.95 34.8327 130.642 35.1657C130.434 35.3903 130.132 35.5374 129.922 35.7605C129.711 35.9835 129.59 36.2763 129.378 36.5086C129.136 36.7828 128.83 37.0105 128.593 37.2831C128.439 37.4612 128.155 37.424 128.061 37.5371C127.714 37.9491 127.221 37.9336 126.734 38.0483C126.677 37.9563 126.632 37.8587 126.599 37.7571C126.539 37.4763 126.498 37.1923 126.476 36.9067C126.458 36.5752 126.556 36.222 126.476 35.9123C126.287 35.2462 126.539 34.5972 126.476 33.9389C126.433 33.5746 126.469 33.2059 126.581 32.8546C126.684 32.5526 126.548 32.1778 126.511 31.8355C126.493 31.6666 126.453 31.4993 126.44 31.329C126.415 31.0006 126.43 30.6644 126.377 30.3392C126.291 29.8017 126.166 29.2689 126.045 28.736C126.011 28.6212 125.964 28.5097 125.907 28.403C125.863 28.3007 125.907 28.149 125.851 28.0684C125.709 27.9075 125.552 27.7587 125.382 27.6238C124.982 27.5139 124.957 28.0436 124.499 27.9786C124.21 27.9367 123.836 27.9894 123.515 27.9786C122.996 27.9584 122.749 28.0684 122.686 28.5486C122.651 28.7933 122.686 29.0458 122.658 29.2936C122.615 29.8295 122.55 30.3624 122.51 30.8983C122.492 31.1338 122.596 31.411 122.495 31.5985C122.298 31.964 122.495 32.3017 122.532 32.6254C122.575 32.9246 122.586 33.2272 122.565 33.5284C122.552 33.6438 122.552 33.7601 122.565 33.8754C122.63 34.1785 122.678 34.4846 122.709 34.7924C122.728 35.5018 122.709 36.2112 122.698 36.9206C122.684 37.1595 122.646 37.3966 122.583 37.6285C122.557 37.7431 122.452 37.8392 122.417 37.9538C122.344 38.1923 122.305 38.4386 122.237 38.6787C122.099 39.1682 121.961 39.6576 121.8 40.1393C121.663 40.5576 121.576 41.0207 121.313 41.363C121.049 41.7053 120.939 42.1205 120.737 42.4891C120.618 42.6992 120.474 42.8956 120.307 43.0746C120.058 43.3472 119.705 43.5656 119.541 43.8739C119.349 44.2332 119.144 44.5461 118.783 44.763L118.242 45.0898C118.112 45.1471 117.988 45.2161 117.872 45.2958C117.718 45.3872 117.501 45.4336 117.413 45.5606C117.172 45.9092 116.656 45.9742 116.479 46.38C116.465 46.4095 116.338 46.3955 116.25 46.4033C116.202 46.5767 116.142 46.7394 115.882 46.5582C115.824 46.5194 115.701 46.5458 115.615 46.5582C115.228 46.6418 114.815 46.648 114.48 46.8897C114.411 46.9317 114.33 46.9548 114.248 46.9562C113.853 46.9826 113.83 46.9129 113.816 46.5535C113.806 46.2933 113.982 46.0687 113.859 45.7713C113.763 45.5219 113.878 45.1842 113.956 44.8977C114.049 44.5507 114.122 44.1588 114.341 43.8878C114.856 43.2558 115.454 42.6812 116.024 42.0879C116.095 42.0336 116.174 41.9892 116.258 41.9562C116.358 41.91 116.455 41.8583 116.548 41.8014C117.015 41.4699 117.472 41.1276 117.94 40.7992C118.129 40.6675 118.335 40.5591 118.536 40.4414C119.101 40.1099 119.621 39.6994 120.304 39.5709C120.459 39.5477 120.603 39.482 120.718 39.3822C120.833 39.2823 120.913 39.1528 120.949 39.0101C121.044 38.6694 121.115 38.324 121.195 37.9863C120.963 37.8438 120.946 37.7663 120.919 37.4999C120.88 37.2553 120.825 37.0132 120.754 36.775L120.437 36.9764L120.422 36.9067C120.306 36.8951 120.189 36.8951 120.073 36.9067C119.868 36.9487 119.667 37.0035 119.47 37.0709C118.819 37.2955 118.096 37.0492 117.454 37.3559C117.195 37.4798 116.88 37.5108 116.625 37.6363C116.317 37.8107 116.02 38.0015 115.736 38.2078C115.595 38.3007 115.44 38.3797 115.308 38.482C115.049 38.6787 114.81 38.9002 114.543 39.0907C114.276 39.2812 113.911 39.4578 113.647 39.6933C113.334 39.9736 113.083 40.3128 112.799 40.6226C112.605 40.8333 112.38 41.0207 112.209 41.2422C111.985 41.5334 111.633 41.7363 111.545 42.1297C111.49 42.3033 111.391 42.4624 111.258 42.5944C110.977 42.9503 110.782 43.3595 110.688 43.7933C110.6 44.1031 110.653 44.4547 110.6 44.7831C110.485 45.4956 110.343 46.205 110.215 46.916C110.196 47.0011 110.199 47.0892 110.223 47.1731C110.371 47.5278 110.298 47.8717 110.185 48.214C110.154 48.3069 110.097 48.4572 110.038 48.4634C109.935 48.4758 109.82 48.3952 109.706 48.3519L108.792 48.6616C108.46 48.7282 108.03 48.7143 107.753 48.8955C107.504 49.0511 107.221 49.1536 106.924 49.196C106.713 49.2347 106.478 49.196 106.282 49.2549C105.993 49.3374 105.687 49.359 105.388 49.3184C105.282 49.3184 105.184 49.2084 105.078 49.1991C104.791 49.1774 104.502 49.1806 104.215 49.1806C104.084 49.1961 103.951 49.2018 103.819 49.1976C103.487 49.1403 103.2 48.9436 102.84 49.0133C102.78 49.0241 102.674 48.9497 102.641 48.8909C102.623 48.8615 102.692 48.7639 102.744 48.719C102.842 48.6353 102.968 48.5765 103.061 48.4882C103.628 47.9615 103.955 47.2893 104.321 46.6434C104.688 45.9974 104.738 45.2106 105.209 44.591C105.235 44.5569 105.222 44.4981 105.232 44.4516C105.35 43.8661 105.474 43.2837 105.582 42.6966C105.655 42.3048 105.703 41.9083 105.768 41.5148C105.773 41.4494 105.797 41.3864 105.836 41.332C105.992 41.1585 106.088 40.9944 105.847 40.8131C105.833 40.7933 105.824 40.7706 105.821 40.747C105.818 40.7233 105.821 40.6993 105.829 40.6768C105.983 40.1921 106.003 39.6791 105.887 39.1852C105.883 39.1283 105.889 39.071 105.907 39.0164C106.012 38.6643 105.993 38.2902 105.852 37.9491C105.737 37.7459 105.66 37.526 105.623 37.2986C105.605 37.0477 105.341 36.9408 105.317 36.7115C105.304 36.6974 105.287 36.6863 105.269 36.6793C105.25 36.6723 105.23 36.6695 105.21 36.6713C104.97 36.7766 104.879 36.6356 104.797 36.4699C104.772 36.4219 104.685 36.4033 104.631 36.3708L104.449 36.6031C104.315 36.5071 104.389 36.1632 104.077 36.3537C103.921 36.4727 103.737 36.5551 103.54 36.5938C102.977 36.6807 102.422 36.8097 101.881 36.9795C101.549 37.0571 101.24 37.205 100.979 37.4117C100.591 37.7788 100.294 38.2279 99.9503 38.6369C99.8408 38.767 99.6716 38.8645 99.592 39.007C99.3415 39.4516 99.1109 39.9085 98.8936 40.3686C98.7092 40.7427 98.548 41.1265 98.4109 41.5179C98.2799 41.9052 98.3197 42.3311 98.0792 42.7013C97.974 42.8878 97.9049 43.0903 97.8751 43.2992C97.8005 43.6818 97.7524 44.0737 97.6976 44.4532C97.6562 44.7475 97.623 45.0418 97.5799 45.3361C97.5434 45.587 97.4853 45.8364 97.4554 46.0904C97.3974 46.6 97.3543 47.1127 97.3128 47.5371C97.0893 47.5627 96.8677 47.601 96.6493 47.6517C96.4346 47.7122 96.2298 47.7998 96.0405 47.9119C95.8282 48.0436 95.5428 48.0235 95.377 48.2806C95.3369 48.3375 95.2803 48.3824 95.2138 48.4102C95.1472 48.4379 95.0736 48.4473 95.0015 48.4372C94.9295 48.4271 94.862 48.3979 94.8071 48.3532C94.7523 48.3084 94.7123 48.2499 94.6919 48.1846C94.5658 47.8376 94.4845 47.4783 94.3601 47.1297C94.2174 46.7146 94.0516 46.3057 93.9039 45.8906C93.8061 45.6149 93.7779 45.3035 93.6186 45.0665C93.3383 44.6514 93.398 44.1573 93.1757 43.7344C93.0463 43.4882 92.9899 43.2078 92.8572 42.96C92.6996 42.6672 92.4392 42.4194 92.5122 42.0461C92.5238 41.9841 92.4425 41.9067 92.4027 41.837C92.3629 41.7673 92.3115 41.7394 92.3181 41.6991C92.4143 41.1276 92.0261 40.6567 91.9366 40.1223C91.8619 39.8131 91.7621 39.5096 91.638 39.2146C91.5517 39.1434 91.3411 39.0194 91.3576 38.9745C91.4406 38.767 91.3195 38.6818 91.1752 38.5919C91.0309 38.5021 90.8816 38.3441 90.7339 38.3441C90.4619 38.3441 90.2363 38.3643 90.218 38.0343C90.218 37.9941 90.1168 37.96 90.1069 37.9522C89.9526 38.0886 89.8398 38.262 89.6872 38.3054C89.4166 38.3524 89.1405 38.3659 88.8661 38.3457C88.7865 38.3457 88.7002 38.2775 88.6289 38.2388C88.463 38.1598 88.2971 38.0947 88.1545 38.2574C87.9289 38.5006 87.7514 38.8072 87.4744 38.9792C86.9668 39.289 86.854 39.8125 86.5902 40.254C86.5521 40.3175 86.562 40.4089 86.5288 40.4708C86.4326 40.666 86.3264 40.8581 86.2253 41.0517L86.0826 40.999C86.1788 40.7217 86.2833 40.4461 86.3679 40.1641C86.4389 39.9274 86.4943 39.6869 86.5338 39.4439C86.5703 39.2193 86.5338 38.9792 86.5952 38.767C86.6798 38.4959 86.8722 38.2543 86.9585 37.9817C87.0115 37.8128 87.0298 37.5418 86.9253 37.4442C86.7677 37.2893 86.7992 37.1344 86.7312 36.9888C86.6699 36.8253 86.5655 36.6788 86.4276 36.5628C86.2721 36.4859 86.1039 36.4336 85.93 36.4079L85.2797 36.9052C85.0956 36.679 84.8667 36.6821 84.6162 36.7688C84.5366 36.7967 84.4072 36.8246 84.3624 36.7874C84.0804 36.5535 83.9378 36.7657 83.8332 36.9423C83.6592 37.2241 83.5201 37.5234 83.4185 37.8345C83.2079 38.5734 83.0254 39.3215 82.8645 40.0712C82.8168 40.4052 82.7874 40.7412 82.7766 41.078C82.7467 41.3878 82.6107 41.7224 82.687 42.0074C82.8181 42.5402 82.3237 43.0653 82.7036 43.5826C82.7135 43.5966 82.682 43.6353 82.6787 43.6632C82.6323 44.0256 82.5643 44.3881 82.5493 44.7475C82.5278 45.2849 82.5493 45.824 82.5493 46.3615V47.1514L82.0849 46.9315C81.9464 46.9336 81.8092 46.9066 81.6834 46.8525C81.5175 46.7781 81.3517 46.5938 81.2156 46.6124C80.7379 46.6759 80.514 46.3274 80.159 46.1477L80.003 46.2345C79.8969 46.0796 79.8637 45.8488 79.5751 45.9665C79.5353 45.982 79.4457 45.8642 79.371 45.8255C79.2234 45.7512 79.0708 45.6877 78.9182 45.6226C78.8784 45.604 78.822 45.6102 78.7888 45.587C78.3715 45.2815 77.9014 45.0447 77.3987 44.8869C77.2563 44.8442 77.1172 44.7924 76.9823 44.732C76.6854 44.5926 76.4382 44.3664 76.1529 44.2022C75.4894 43.8227 74.8109 43.4572 74.1375 43.0885C73.9981 42.9915 73.8437 42.9147 73.6796 42.8608C73.347 42.7937 73.0433 42.6358 72.8071 42.407C72.5821 42.2098 72.3371 42.0334 72.0756 41.8804C71.826 41.7223 71.5611 41.5864 71.2843 41.4745C70.9525 41.346 70.717 41.0191 70.289 41.0796C70.2359 41.0873 70.1646 40.9913 70.0949 40.9371C70.4848 40.8147 70.8298 40.6969 71.1798 40.5947C71.8865 40.3872 72.6064 40.2152 73.3031 39.9751C74.1939 39.6746 75.0681 39.3262 75.9572 39.004C76.4956 38.7856 77.046 38.5937 77.6061 38.4293C77.7719 38.4002 77.9272 38.3322 78.0572 38.2317C78.1872 38.1312 78.2877 38.0014 78.3492 37.8546C78.4781 37.6275 78.6297 37.4123 78.8021 37.2118C78.8498 37.1645 78.892 37.1126 78.9281 37.0569C79.0509 36.7688 78.8419 35.9727 78.5964 35.7574C78.4902 35.6629 78.3956 35.5545 78.2546 35.4104C78.1272 35.3551 77.9888 35.3251 77.8482 35.3221C77.6177 35.3516 77.3672 35.0944 77.1665 35.35C77.0255 35.5281 76.8646 35.5204 76.6556 35.4925C76.0866 35.4197 75.5392 35.4553 75.1726 35.9463C75.0847 35.9045 75.0067 35.8302 74.947 35.8441C74.6417 35.9107 74.2669 35.9231 74.0595 36.0997C73.7277 36.3785 73.313 36.4095 72.958 36.5814C72.7208 36.7007 72.3974 36.6697 72.1519 36.7812C71.976 36.8618 71.6708 36.8308 71.6443 37.1251C71.6443 37.1561 71.5696 37.1979 71.5248 37.2072C71.1483 37.2722 70.8381 37.5495 70.3885 37.4039C70.0568 37.2955 69.9821 37.3141 70.0087 36.9686C70.0186 36.8261 70.0767 36.6589 70.017 36.5473C69.9727 36.4764 69.9505 36.3953 69.9528 36.3132C69.9551 36.2311 69.982 36.1513 70.0302 36.0827C70.0491 36.0213 70.0553 35.9572 70.0485 35.8937C70.0485 35.7667 70.0485 35.6397 70.0684 35.5127C70.0684 35.4399 70.1148 35.367 70.1148 35.2942C70.1231 34.653 69.9854 34.0117 70.1148 33.3689C70.1593 33.1308 70.1865 32.8902 70.1961 32.6487C70.2094 32.2552 70.1961 31.8602 70.2061 31.4652C70.2171 31.4189 70.2332 31.3737 70.2542 31.3305C70.3111 31.1975 70.3512 31.0586 70.3736 30.9169C70.4085 30.2973 70.43 29.67 70.4466 29.0474C70.4596 28.9111 70.4415 28.7738 70.3935 28.6446C70.2276 28.3054 70.0319 27.9801 69.8494 27.6533H69.4762C69.3004 27.8314 69.1959 27.9925 69.0432 28.0715C68.9404 28.1242 68.7679 28.0606 68.6252 28.0467C68.3333 28.0204 68.0397 27.9708 67.746 27.9708C67.5517 27.9939 67.3608 28.0375 67.1771 28.1009C67.0885 28.3211 67.0207 28.5481 66.9747 28.7794C66.8984 29.4269 66.905 30.0836 66.7922 30.7233C66.6429 31.5721 66.4074 32.407 66.215 33.2496C66.0889 33.8088 65.9695 34.3695 65.85 34.9302C65.7522 35.3794 65.6692 35.8333 65.5597 36.2794C65.4901 36.5582 65.3607 36.8231 65.301 37.1019C65.2114 37.5061 65.1749 37.9197 65.087 38.3255C65.0619 38.4812 64.982 38.6246 64.8597 38.7329C64.6059 38.9095 64.3803 39.0861 64.3256 39.3912C64.299 39.5461 64.3073 39.701 64.2659 39.8466C64.1132 40.398 63.9507 40.9479 63.7848 41.4962C63.6803 41.8447 63.5741 42.1932 63.4447 42.5325C63.3081 42.9069 63.1509 43.2745 62.9736 43.6338C62.8791 43.8165 62.6933 43.9559 62.5722 44.1294C62.4063 44.3602 62.3035 44.6251 62.1243 44.8389C61.8738 45.1362 61.7345 45.4878 61.4724 45.7852C61.1672 46.1291 61.0195 46.5907 60.7392 46.9593C60.5117 47.2495 60.2376 47.505 59.9264 47.7168C59.7373 47.85 59.4652 47.881 59.2529 47.9491C59.0257 47.8314 59.1451 47.4395 58.7636 47.517C58.7642 47.3658 58.7378 47.2155 58.6856 47.0724C58.5739 46.897 58.5064 46.7002 58.488 46.4968C58.4696 46.2934 58.5009 46.0888 58.5794 45.8983C58.6829 45.5351 58.7621 45.1663 58.8166 44.7939C58.8448 44.6669 58.9444 44.4996 58.8913 44.4237C58.7768 44.2611 58.8548 44.1806 58.9493 44.0721C59.1152 43.8801 59.1667 43.4526 59.024 43.2589C58.8813 43.0653 58.7851 42.9274 58.873 42.706C58.888 42.6703 58.8448 42.596 58.805 42.5635C58.6339 42.4103 58.5147 42.2135 58.4622 41.9976C58.4097 41.7817 58.4263 41.5563 58.5098 41.3491C58.5639 41.2168 58.5766 41.0728 58.5463 40.934C58.4733 40.6397 58.3605 40.3547 58.2692 40.0805L57.3884 39.3897C57.3121 39.4888 57.2574 39.5616 57.1877 39.6545L56.9919 39.3726C56.9919 39.4005 56.9919 39.4299 56.9919 39.4578C56.6782 39.5436 56.3591 39.6113 56.0365 39.6607C55.6729 39.6788 55.3085 39.6788 54.945 39.6607C54.945 39.6731 54.9234 39.701 54.9052 39.7304C54.8421 39.6917 54.7841 39.6235 54.7277 39.6266C54.4993 39.6167 54.2708 39.6413 54.0509 39.6995C53.8734 39.7645 53.739 39.9333 53.5698 40.0681C53.326 39.9736 53.0556 39.921 52.9063 40.2726C52.8897 40.3082 52.8233 40.3221 52.7852 40.3516C52.4837 40.5527 52.1594 40.722 51.8181 40.8565C51.6522 40.9355 51.5278 41.0718 51.3686 41.1539C50.9771 41.3553 50.5756 41.5427 50.1759 41.7286C50.0801 41.7835 49.9724 41.8179 49.8607 41.8293C49.4891 41.8293 49.3149 42.0833 49.1026 42.3141L48.9915 42.2629C48.6365 42.5185 48.3197 42.7276 48.0244 42.9646C47.7333 43.1869 47.459 43.4275 47.2033 43.6849C46.9213 43.9807 46.6774 44.3044 46.4203 44.6251C46.2793 44.797 46.1466 44.9721 46.0089 45.1455C45.8961 45.2834 45.7833 45.4228 45.6639 45.5575C45.6291 45.5963 45.566 45.6149 45.5229 45.6505C45.357 45.7961 45.221 46.0052 44.9191 45.8952C44.8577 45.8736 44.7532 45.9463 44.6736 45.9789C44.594 46.0114 44.4845 46.0889 44.3932 46.0842C43.7496 46.0563 43.2005 46.2825 42.6598 46.5768C42.4544 46.6993 42.213 46.7583 41.9697 46.7456C41.6015 46.6899 41.2962 46.8122 40.9744 46.9005C40.8782 46.9253 40.7389 46.9005 40.6891 46.9609C40.4038 47.28 39.999 47.0151 39.6938 47.201C39.5661 47.2521 39.4533 47.3559 39.3189 47.4101C38.7233 47.6463 38.0888 47.7856 37.4428 47.8221C37.1907 47.8423 36.9236 47.7726 36.6797 47.8221C36.4359 47.8717 36.2567 47.8469 36.1406 47.6533C36.0195 47.6966 35.8935 47.788 35.8089 47.7617C35.6127 47.69 35.403 47.6565 35.1925 47.6632C34.982 47.6698 34.7752 47.7165 34.5847 47.8004C34.5581 47.5851 34.4884 47.4024 34.5266 47.2444C34.6209 46.89 34.7384 46.5414 34.8783 46.2004C34.9155 46.1011 34.9897 46.0176 35.0873 45.9649C35.993 45.5715 36.912 45.1905 37.8144 44.8032C38.2722 44.6096 38.7234 44.402 39.1862 44.2177C40.228 43.8026 41.2796 43.4076 42.3197 42.9863C42.7127 42.8249 43.0256 42.5304 43.1956 42.1623C43.3071 41.8913 43.4669 41.6399 43.6683 41.4188C43.9686 41.14 43.8541 40.8178 43.7894 40.5591C43.6949 40.1812 43.4162 39.8528 43.1558 39.5384C43.0944 39.4625 42.955 39.4392 42.8489 39.3989C42.7079 39.3447 42.5171 39.3881 42.4474 39.1914C42.4325 39.1511 42.2401 39.1403 42.1406 39.1619C42.0399 39.2002 41.9459 39.2525 41.8619 39.3168L41.706 39.148C41.5981 39.1806 41.5119 39.2317 41.4389 39.2193C41.2216 39.1836 41.0142 39.1093 40.8218 39.2983C40.772 39.3447 40.6559 39.337 40.5597 39.3339C40.379 39.3091 40.1966 39.2972 40.014 39.2983C39.6523 39.3401 39.2808 39.5058 38.9424 39.4532C38.6475 39.4055 38.3441 39.4416 38.0715 39.5569C37.5191 39.7877 36.9335 39.9272 36.3895 40.2029C35.9062 40.4427 35.4556 40.736 35.0475 41.0765C34.988 41.1164 34.924 41.1501 34.8567 41.1771C34.8368 41.1012 34.7771 41.0129 34.8003 40.9494C34.9197 40.6164 35.0591 40.2911 35.1951 39.955C35.1951 39.955 35.0856 39.9209 35.0823 39.8822C35.0591 39.6081 35.0607 39.3308 35.0491 39.0551C35.0513 38.9997 35.0338 38.9453 34.9994 38.9002C34.8783 38.7809 34.7323 38.6833 34.6162 38.561C34.4238 38.3596 33.9526 38.2404 33.7752 38.3798C33.4815 38.609 33.1382 38.6245 32.7799 38.6012C32.5725 38.5873 32.3668 38.5455 32.1595 38.516C31.9521 38.4866 31.6701 38.4169 31.5092 38.6477C31.5092 38.6477 31.4429 38.6121 31.4047 38.5997C31.3666 38.5873 31.3151 38.5641 31.2902 38.578C31.0165 38.7329 30.7014 38.8537 30.4841 39.0628C30.0095 39.524 29.5615 40.0085 29.1421 40.5142C28.7821 40.9433 28.4786 41.4079 28.1468 41.8618C28.0041 42.06 27.8797 42.2692 27.747 42.4814C27.6961 42.174 27.6756 41.8629 27.6856 41.552C27.6648 41.3047 27.6714 41.056 27.7055 40.81C27.8714 40.1223 27.9046 39.4671 27.5397 38.8057C27.4335 38.6136 27.3887 38.5269 27.1532 38.5207C26.9574 38.5207 26.7899 38.4556 26.619 38.6245C26.5616 38.6756 26.494 38.7156 26.42 38.7422C26.3459 38.7688 26.267 38.7814 26.1877 38.7794C25.7614 38.7453 25.3401 38.6663 24.9519 38.6105C24.7976 38.8274 24.6732 38.9916 24.5621 39.1635C24.2735 39.5981 24.0575 40.0714 23.9218 40.5668C23.799 41.0222 23.6 41.4606 23.4241 41.9609C23.3451 41.8947 23.2719 41.8227 23.2052 41.7456C22.7825 41.073 22.1342 40.5493 21.3606 40.2555C21.2926 40.2276 21.1698 40.2044 21.1333 40.2385C20.8314 40.5049 20.4897 40.3841 20.1712 40.3221C19.7333 40.2354 19.292 40.0727 18.8558 40.2059C18.4626 40.3252 18.1425 40.1393 17.7875 40.113C17.5105 40.0913 17.2069 39.9968 16.9581 40.0681C16.532 40.2113 16.0697 40.2318 15.631 40.127C15.3516 40.0541 15.0562 40.0541 14.7767 40.127C14.4675 40.1922 14.1528 40.232 13.8362 40.2462C13.312 40.2877 12.7851 40.2914 12.2603 40.2571C12.0198 40.2338 11.7958 40.0913 11.5437 40.2183C11.3048 39.924 11.0029 40.3531 10.7541 40.1579C10.5799 40.3392 10.3643 40.3252 10.1221 40.3221C9.72797 40.3356 9.33485 40.3682 8.94434 40.4197C8.86749 40.1141 8.81591 39.8034 8.79007 39.4903C8.79007 39.2595 8.91448 39.0257 8.74196 38.8026C8.72372 38.7794 8.77348 38.7143 8.78178 38.6678C8.82132 38.5202 8.84411 38.3692 8.84979 38.2171C8.82988 37.7958 8.75358 37.376 8.76021 36.9578C8.76021 36.648 8.82822 36.3382 8.71376 36.0284C8.70487 35.9771 8.70487 35.9248 8.71376 35.8735C8.73201 35.5637 8.76187 35.271 8.76187 34.969C8.76187 34.7149 8.71542 34.4609 8.71376 34.2084C8.71376 34.0163 8.76685 33.8243 8.77182 33.6307C8.78438 33.4651 8.76813 33.2988 8.72372 33.1381C8.65949 32.8258 8.63058 32.5081 8.63746 32.1901C8.66519 31.9174 8.6546 31.6425 8.60594 31.3723C8.54054 31.139 8.45053 30.9122 8.33721 30.6954C8.19787 30.3717 8.07014 30.0402 7.90094 29.7289C7.87456 29.6813 7.83503 29.6412 7.78645 29.6126C7.73787 29.5841 7.68201 29.5683 7.62465 29.5667C7.5673 29.5651 7.51053 29.5779 7.46024 29.6037C7.40994 29.6295 7.36795 29.6673 7.33861 29.7134C7.24405 29.8683 7.11632 29.8513 6.97864 29.9008C6.59048 30.0402 6.31512 29.7645 5.98335 29.7149C5.57694 29.653 5.26509 29.7723 5.20371 30.1579C5.12906 30.6397 5.06271 31.1245 5.00299 31.6093C4.99912 31.705 5.0143 31.8006 5.04778 31.8912C5.12785 32.1163 5.1943 32.3453 5.24684 32.5774C5.2784 32.8297 5.28839 33.0841 5.2767 33.3379C5.2767 33.4649 5.21034 33.5935 5.21366 33.719C5.22196 33.9838 5.2684 34.2456 5.28001 34.5105C5.29494 34.8528 5.28831 35.1967 5.29494 35.539C5.29494 35.8085 5.31651 36.0765 5.31319 36.346C5.31436 36.4321 5.28714 36.5164 5.23523 36.5876C5.16603 36.6617 5.13059 36.758 5.13648 36.8561C5.14237 36.9543 5.18912 37.0463 5.26674 37.1127C5.3184 37.1595 5.35465 37.2192 5.37125 37.2846C5.40521 37.6865 5.41684 38.0898 5.40609 38.4928C5.39281 38.736 5.22859 38.9776 5.2402 39.2162C5.27781 39.5106 5.35299 39.7997 5.46414 40.0774C5.54874 40.3438 5.49068 40.5421 5.28167 40.5715C5.12992 40.5952 4.97585 40.6035 4.82218 40.5963C4.298 40.5637 3.82689 41.109 3.9231 41.5861C3.99443 41.916 4.08898 42.2568 3.8667 42.5929C3.80539 42.6848 3.77939 42.7934 3.79295 42.9009C3.80652 43.0085 3.85885 43.1085 3.94135 43.1846C4.38923 43.6679 4.82882 44.1542 5.2684 44.6421C5.43916 44.7969 5.5875 44.9719 5.70965 45.1626C5.94137 45.6652 6.05723 46.2077 6.04971 46.7549C6.058 47.3156 5.87055 47.9228 6.27696 48.4448C6.28324 48.4524 6.2878 48.4612 6.29037 48.4705C6.29293 48.4798 6.29345 48.4895 6.29189 48.499C6.15919 48.8707 6.45777 49.1356 6.56062 49.4485C6.60052 49.5414 6.61109 49.6429 6.5911 49.7412C6.57111 49.8394 6.52139 49.9303 6.44782 50.003C6.06961 50.3856 5.51888 50.4414 5.04612 50.6365C4.57336 50.8317 4.02761 50.8488 3.71907 51.1802C3.52665 51.1802 3.3674 51.1338 3.29109 51.188C3.01308 51.3852 2.68388 51.5098 2.33728 51.5489C2.17285 51.5716 2.0163 51.6296 1.87989 51.7183C1.74347 51.807 1.6309 51.9239 1.551 52.06C1.43654 52.2149 1.31876 52.3931 1.05335 52.3915C0.988658 52.3915 0.904058 52.4612 0.862588 52.5201C0.656895 52.8051 0.446225 53.0885 0.272049 53.389C0.122756 53.6477 -0.0298553 53.9095 0.106168 54.2378C0.150956 54.3509 0.0431326 54.512 0.0315209 54.653C0.00995632 54.9442 -0.0796197 55.2725 0.0182504 55.5204C0.127732 55.8007 0.406413 56.03 0.628695 56.2654C0.664764 56.2969 0.707904 56.3205 0.754968 56.3344C0.802032 56.3483 0.851834 56.3523 0.900741 56.346C1.19103 56.2747 1.55266 56.5009 1.78157 56.1756C1.78157 56.1756 1.80314 56.1756 1.81143 56.1756C2.16126 56.2498 2.52559 56.2391 2.86976 56.1446C3.30934 56.0548 3.77049 56.0594 4.2134 55.9773C5.75444 55.6939 7.16443 55.0665 8.59101 54.4872C9.28937 54.2038 9.96617 53.8677 10.6529 53.5579C11.0593 53.3736 11.4823 53.2063 11.8738 53.0018C12.3117 52.7772 12.7264 52.5154 13.1544 52.2753C13.3584 52.1607 13.5791 52.0709 13.7781 51.9516C14.5478 51.4869 15.286 50.9711 16.0855 50.5575C16.6499 50.2586 17.1835 49.9118 17.6797 49.5213C18.5776 48.8571 19.5592 48.2979 20.6025 47.8562C21.2063 47.5898 21.8002 47.3017 22.3857 47.0043C22.6296 46.8819 22.8353 46.6945 23.0692 46.5613C23.4109 46.3583 23.7609 46.1709 24.0794 45.9928C24.1175 46.4064 24.1391 46.8432 24.2005 47.2753C24.2569 47.6734 24.3481 48.0684 24.4377 48.4618C24.4874 48.6771 24.5704 48.8847 24.6301 49.0969C24.6766 49.2657 24.7114 49.4361 24.7512 49.6065C24.8059 49.8311 24.8491 50.0572 24.9171 50.2787C25.0266 50.635 25.1626 50.9835 25.2721 51.3398C25.3749 51.6712 25.3683 52.0275 25.6138 52.3249C25.7074 52.441 25.8395 52.5249 25.9895 52.5636C26.1395 52.6023 26.2991 52.5935 26.4432 52.5387C26.6522 52.4566 26.9242 52.3481 27.1067 52.407C27.8963 52.6564 28.2098 52.5278 28.4869 51.7874C28.6079 51.4621 28.8186 51.1678 28.9248 50.8364C29.0002 50.5025 29.0495 50.1639 29.0724 49.8233C29.1039 49.6049 29.1321 49.385 29.1769 49.1681C29.1952 49.0861 29.2698 49.0133 29.2914 48.9343C29.366 48.64 29.4307 48.3441 29.5004 48.0498C29.5701 47.7555 29.6397 47.4736 29.7061 47.1839C29.7075 47.1366 29.7024 47.0892 29.6912 47.043C29.6771 46.9434 29.6738 46.8427 29.6812 46.7425C29.7119 46.6018 29.7507 46.4627 29.7973 46.3258C29.8736 46.0594 29.93 45.7852 30.0312 45.5266C30.1324 45.3066 30.2465 45.092 30.3729 44.8838C30.5571 44.543 30.6898 44.1682 30.9319 43.8692C31.4976 43.1753 32.1047 42.5092 32.7168 41.8556C33.0635 41.4807 33.5346 41.4885 34.1036 41.5551C33.466 41.9757 32.9599 42.5472 32.6372 43.2109C32.39 43.6756 32.0102 44.0272 31.6834 44.4206C31.5175 44.6267 31.3334 44.7831 31.4163 45.065C31.4263 45.0975 31.3981 45.1378 31.3898 45.175C31.3267 45.4445 31.1857 45.7217 31.2239 45.9804C31.3151 46.7549 30.9087 47.4798 31.0066 48.2667C31.058 48.6911 30.8639 49.1217 30.9718 49.5957C31.0547 49.9628 31.1891 50.1378 31.5241 50.288C31.9621 50.4863 32.3735 50.7388 32.7981 50.9634C32.8645 51.0088 32.9421 51.0376 33.0237 51.047C33.4533 51.03 33.8813 51.0006 34.3093 50.9696C34.4409 50.9431 34.5746 50.9271 34.7091 50.9216C35.2067 50.9696 35.7127 51.047 36.2169 51.0888C36.3745 51.1012 36.5387 51.0099 36.7013 51.0021C37.1525 50.982 37.6137 51.03 38.0549 50.9587C38.8926 50.8224 39.7137 50.6319 40.5431 50.446C41.0408 50.3361 41.5152 50.1905 41.9996 50.0572C42.4143 49.9442 42.829 49.8264 43.242 49.7087C43.7231 49.5724 44.2074 49.4439 44.6835 49.2921C45.0252 49.1836 45.2359 49.3215 45.3952 49.5755C45.4319 49.6546 45.4592 49.7372 45.4764 49.8218C45.5776 50.1316 45.9575 50.415 46.1682 50.3206C46.3788 50.2261 46.5713 50.2973 46.7753 50.3841C47.0089 50.4911 47.2601 50.5608 47.5184 50.5901C47.7275 50.6087 47.9464 50.508 48.1637 50.4956C48.7576 50.46 49.3581 50.4755 49.947 50.4104C50.6546 50.318 51.3331 50.0862 51.9375 49.7304C52.0357 49.6761 52.1397 49.6314 52.2477 49.5972C52.9478 49.3881 53.4918 48.9436 54.0807 48.5641C54.3959 48.3596 54.7028 48.1427 55.013 47.9321L55.0893 48.0018C55.0224 48.2087 54.979 48.4215 54.9599 48.6369C54.9599 49.1139 55.2353 49.512 55.5106 49.8884C55.7163 50.1672 56.0265 50.381 56.2256 50.6629C56.5291 51.095 57.04 51.1802 57.478 51.3847C57.604 51.442 57.7849 51.394 57.9408 51.4095C58.027 51.4095 58.1067 51.4652 58.1979 51.4745C58.4384 51.5039 58.7304 51.6124 58.9129 51.5256C59.3574 51.3134 59.8252 51.2902 60.288 51.2778C60.8304 51.2623 61.2833 51.1229 61.6333 50.7373C61.7345 50.6273 61.844 50.5235 61.9551 50.4275C62.3167 50.0944 62.7066 49.7846 63.0367 49.4268C63.3668 49.069 63.6073 48.6864 63.8893 48.3147C63.9147 48.284 63.9424 48.255 63.9722 48.2279C64.4538 47.7512 64.8579 47.2111 65.1716 46.6248C65.281 46.4188 65.4104 46.2221 65.5166 46.013C65.6825 45.6923 65.8318 45.3655 65.9894 45.0418C66.0922 44.8311 66.2 44.622 66.3045 44.4129L66.4207 44.4346C66.4314 44.5691 66.4314 44.7043 66.4207 44.8389C66.3161 45.5204 66.1917 46.2019 66.4538 46.8788C66.4986 46.995 66.5998 47.1313 66.5683 47.2289C66.4439 47.6269 66.6429 48.0033 66.6098 48.3983C66.5882 48.6632 66.6993 48.9374 66.7508 49.2084C66.7673 49.3029 66.7823 49.399 66.8038 49.4934C66.8486 49.7072 66.8951 49.9225 66.9448 50.1362C67.0162 50.4383 67.0925 50.7388 67.1638 51.0408C67.1676 51.07 67.1624 51.0995 67.1489 51.126C67.0757 51.2664 67.0392 51.4211 67.0423 51.5773C67.0455 51.7334 67.0883 51.8867 67.1671 52.0244C67.2662 52.1808 67.3205 52.3585 67.3247 52.5402C67.2899 53.1985 67.8887 53.3518 68.3034 53.6492C68.3381 53.6676 68.3772 53.6772 68.417 53.6772C68.4569 53.6772 68.496 53.6676 68.5307 53.6492C68.8044 53.3472 69.1428 53.4494 69.4646 53.5129C69.8511 53.5904 70.5246 53.2729 70.6506 52.9243C70.8663 52.328 71.1168 51.7394 71.281 51.1291C71.4286 50.5601 71.4286 49.9664 71.281 49.3974C71.2523 49.2796 71.2417 49.1586 71.2495 49.038C71.2727 48.6802 70.9807 48.2883 70.6954 48.355C70.4101 48.4216 70.3272 48.3549 70.3106 48.1149C70.3106 48.0204 70.2757 47.9275 70.2641 47.833C70.2111 47.4442 70.2475 47.0228 70.0983 46.6774C69.8926 46.2267 70.075 45.8209 70.0501 45.3516C70.3819 45.5576 70.6722 45.745 70.9691 45.9216C71.2196 46.0973 71.49 46.2468 71.7753 46.3676C72.2091 46.4892 72.5991 46.7189 72.9033 47.0321C72.9909 47.128 73.1108 47.193 73.2434 47.2165C73.4272 47.2274 73.6062 47.2763 73.7674 47.3596C73.9286 47.4429 74.068 47.5585 74.1756 47.6982C74.2304 47.771 74.3962 47.7648 74.5074 47.8128C74.8391 47.9677 75.229 48.0699 75.4877 48.2992C75.6536 48.4541 75.7532 48.609 76.0119 48.609C76.1279 48.6101 76.2401 48.6478 76.3304 48.7159C76.8281 49.1496 77.5198 49.1805 78.0772 49.481C78.1999 49.5476 78.2978 49.6545 78.4172 49.7289C78.5139 49.7848 78.6175 49.8295 78.7258 49.8621C78.7788 49.8791 78.8518 49.8419 78.9016 49.8621C79.3412 50.0387 79.7227 50.3469 80.2286 50.3639C80.2568 50.3639 80.2817 50.3918 80.3099 50.4042C80.7711 50.5978 81.1526 50.9649 81.71 50.9556C81.778 50.9556 81.846 51.0346 81.9173 51.0703C82.0218 51.126 82.1296 51.2159 82.2391 51.2252C82.4481 51.2166 82.656 51.1933 82.8612 51.1555C83.2294 51.5411 83.2875 52.0848 83.4086 52.582C83.5297 53.0792 83.9809 53.2016 84.3209 53.4572C84.3437 53.4659 84.3684 53.469 84.3928 53.4663C84.4171 53.4636 84.4404 53.4551 84.4603 53.4417C84.6958 53.1319 85.0425 53.2558 85.3278 53.2868C85.9449 53.3596 86.3845 53.1536 86.6084 52.6115C86.6466 52.5216 86.6881 52.4333 86.7345 52.3466C86.7574 52.2945 86.7923 52.2478 86.8368 52.2098C86.8812 52.1718 86.9341 52.1434 86.9916 52.1267C87.0016 52.1096 87.0132 52.0941 87.0232 52.0786C87.1111 51.3042 87.5291 50.5715 87.7597 49.8109C87.7597 49.7815 87.7597 49.7521 87.7729 49.7227C87.7729 49.7227 87.7729 49.7087 87.7729 49.701L87.8244 49.3416C87.8244 49.3246 87.8376 49.3076 87.8426 49.2921C87.8708 49.1372 87.9007 48.973 87.9322 48.815C87.8957 48.7509 87.8753 48.68 87.8725 48.6074C87.9103 48.4849 87.9568 48.3648 88.0118 48.2481C88.0934 48.0663 88.1535 47.8767 88.191 47.6827C88.2258 47.3652 88.5493 47.0631 88.2872 46.7255C88.2811 46.7127 88.2787 46.6988 88.2802 46.685C88.2816 46.6711 88.2869 46.6578 88.2955 46.6465C88.5742 46.4048 88.473 46.0532 88.5858 45.762C88.7699 45.2865 88.9175 44.7986 88.8611 44.275C88.8495 44.1759 88.9325 44.0675 88.9706 43.9652C89.1144 44.2054 89.2285 44.46 89.3107 44.7242C89.4633 45.2044 89.5927 45.6907 89.7486 46.1694C89.8597 46.5055 89.9974 46.8339 90.1268 47.1638C90.1932 47.3342 90.2147 47.5712 90.3474 47.6564C90.7389 47.9089 90.5133 48.3209 90.7057 48.6307C90.8716 48.9095 90.8882 49.2611 91.0027 49.5709C91.0906 49.8048 91.3344 50.0263 91.3245 50.2431C91.2979 50.7078 91.4903 51.0935 91.6944 51.4683C91.8896 51.7822 92.1302 52.0693 92.4093 52.3218C92.4681 52.3641 92.5365 52.3932 92.6093 52.4069C92.6821 52.4206 92.7572 52.4186 92.829 52.4008C93.2636 52.2692 93.6717 52.091 94.1561 52.2955C94.3296 52.3316 94.5113 52.3056 94.6653 52.2227C94.9772 52.0848 95.2691 51.9036 95.5694 51.7425C95.8512 51.5717 96.1462 51.4205 96.4519 51.2902C97.0573 51.0733 97.6777 50.8937 98.2965 50.714C98.3956 50.7024 98.4957 50.7262 98.5768 50.7806C98.7891 50.9107 98.9882 51.0625 99.1939 51.2004C99.3996 51.3382 99.6086 51.4637 99.8076 51.6046C99.9171 51.6821 99.9951 51.8044 100.111 51.8695C100.461 52.0647 100.775 52.3714 101.256 52.2258C101.271 52.2258 101.296 52.2258 101.314 52.2428C101.585 52.3546 101.885 52.3896 102.176 52.3435C102.41 52.3057 102.649 52.3481 102.852 52.4628C102.947 52.5289 103.061 52.569 103.179 52.5786C103.298 52.5882 103.417 52.5669 103.523 52.517C103.632 52.4897 103.745 52.4855 103.855 52.5046C104.111 52.5046 104.369 52.5046 104.623 52.5263C104.988 52.5619 105.351 52.6208 105.715 52.6657C105.781 52.6722 105.849 52.6669 105.914 52.6502C106.037 52.607 106.163 52.5703 106.29 52.5402C106.572 52.4999 106.861 52.4875 107.145 52.4488C107.622 52.3807 108.102 52.3202 108.573 52.2227C109.064 52.1239 109.55 52.0019 110.028 51.8571C110.437 51.7332 110.827 51.5551 111.232 51.411C111.809 51.2081 112.393 51.0114 112.972 50.8162C113.632 50.5728 114.324 50.4119 115.029 50.3376C115.793 50.2938 116.536 50.0882 117.202 49.7366C117.496 49.5817 117.766 49.3633 118.08 49.2502C118.95 48.9405 119.591 48.3116 120.322 47.8159C120.82 47.4813 121.216 47.026 121.659 46.6248C121.749 46.5442 121.825 46.4575 121.926 46.3831C122.473 45.9557 122.899 45.4102 123.169 44.7939C123.245 44.6515 123.332 44.5148 123.431 44.385L123.517 44.4237C123.504 44.701 123.482 44.9782 123.479 45.2571C123.474 45.484 123.484 45.7111 123.507 45.937C123.547 46.2902 123.673 46.648 123.635 46.9934C123.606 47.2508 123.664 47.5103 123.801 47.7354C123.855 47.811 123.88 47.9009 123.874 47.9915C123.868 48.0821 123.831 48.1684 123.768 48.2372C123.695 48.3265 123.656 48.4352 123.656 48.547C123.656 48.6588 123.695 48.7676 123.768 48.8568C123.829 48.9808 123.858 49.1168 123.852 49.2533C123.872 49.5266 123.875 49.8007 123.862 50.0743C123.821 50.312 123.881 50.5552 124.028 50.7527C124.096 50.8364 124.06 51.0083 124.041 51.1369C123.998 51.4389 123.875 51.7425 123.895 52.0415C123.919 52.5325 124.018 53.0219 124.094 53.5114C124.105 53.588 124.142 53.6593 124.201 53.7143C124.453 53.9265 124.711 54.1356 124.984 54.3339C125.038 54.3726 125.149 54.3416 125.242 54.3339C125.483 54.3169 125.74 54.2441 125.959 54.289C126.603 54.4206 126.926 54.337 127.303 53.846C127.473 53.6291 127.631 53.4037 127.775 53.1706C128.031 52.7431 128.334 52.3264 128.49 51.868C128.729 51.1694 129.004 50.4739 128.988 49.7118C129.011 49.5608 129.061 49.4147 129.137 49.2797C129.165 49.2084 129.247 49.1248 129.228 49.0736C129.094 48.6942 129.33 48.3844 129.413 48.0421C129.565 47.4147 129.673 46.7797 129.804 46.1477C129.811 46.0081 129.853 45.8719 129.925 45.7496C130.101 45.556 129.975 45.4662 129.879 45.4089C129.926 45.206 129.959 45.0006 129.98 44.7939C129.991 44.639 129.92 44.4841 129.937 44.3292C129.982 43.9451 130.268 43.846 130.627 44.0473C130.902 44.2022 131.194 44.3773 131.533 44.1434C131.577 44.1124 131.708 44.1031 131.723 44.1279C131.906 44.4036 132.254 44.275 132.498 44.4144C132.664 44.5074 132.914 44.6018 133.065 44.5492C133.563 44.3757 133.895 44.9147 134.362 44.7412C134.641 45.0263 135.026 44.8559 135.358 44.9178C135.782 44.9984 136.235 45.0944 136.685 45.003C136.736 44.9938 136.803 45.0774 136.867 45.0944C137.172 45.175 137.488 45.3252 137.786 45.3051C138.136 45.2803 138.466 45.3934 138.795 45.3562C139.123 45.319 139.352 45.5777 139.739 45.4863C140.125 45.3949 140.606 45.6288 141.051 45.7001C141.447 45.762 141.822 46.0006 142.255 45.8379C142.305 45.8296 142.357 45.8311 142.406 45.8423C142.455 45.8535 142.502 45.8741 142.542 45.903C142.751 46.047 142.947 46.0981 143.139 45.903C143.229 45.9586 143.328 45.9999 143.433 46.0253C143.776 46.047 144.121 46.0346 144.465 46.061C144.645 46.0829 144.821 46.1267 144.989 46.1911C145.279 46.2887 145.55 46.4342 145.863 46.2112C145.927 46.187 145.995 46.1773 146.064 46.1826C146.132 46.188 146.198 46.2084 146.256 46.2422C146.673 46.5009 147.144 46.4172 147.593 46.4606C147.907 46.4916 148.225 46.4823 148.542 46.4947C148.573 46.5 148.601 46.5154 148.622 46.538C148.774 46.6929 148.922 46.7859 149.089 46.5504C149.104 46.5303 149.184 46.5365 149.227 46.5504C149.411 46.6047 149.59 46.6743 149.776 46.7239C150.009 46.7973 150.247 46.8523 150.489 46.8881C150.73 46.9113 150.997 46.7642 151.199 47.0043C151.233 47.0279 151.274 47.0389 151.316 47.0352C151.704 47.0352 152.094 47.0352 152.477 47.0352C152.513 47.0352 152.548 47.0755 152.586 47.0802C152.709 47.0926 152.832 47.0972 152.954 47.1065L153.157 47.1189L153.55 47.1514C153.64 47.1592 153.727 47.1715 153.815 47.1855C153.89 47.2043 153.966 47.2193 154.043 47.2304C154.237 47.2475 154.432 47.249 154.627 47.2676C154.768 47.2815 154.907 47.3234 155.048 47.3296C155.3 47.3404 155.546 47.3296 155.808 47.3296C155.896 47.3296 155.982 47.3079 156.07 47.3017C156.27 47.2893 156.471 47.2676 156.672 47.2722C156.873 47.2769 157.035 47.3327 157.214 47.3296C157.994 47.3172 158.777 47.1979 159.547 47.4163C159.626 47.4402 159.712 47.4402 159.792 47.4163C160.156 47.2806 160.554 47.2431 160.94 47.3079C161.237 47.3548 161.539 47.3663 161.839 47.3419C162.607 47.2862 163.373 47.1623 164.142 47.1421C165.221 47.1127 166.25 46.8525 167.293 46.6434C168.055 46.4885 168.809 46.3042 169.564 46.1183C170.319 45.9324 171.107 45.7946 171.817 45.4987C172.394 45.2617 173.006 45.0929 173.55 44.7459C173.973 44.4764 174.285 44.2193 174.408 43.7577C174.436 43.6242 174.513 43.5039 174.625 43.4169C174.997 43.2249 175.065 42.9569 174.949 42.596ZM19.6138 43.9172C19.3036 44.1945 18.9669 44.4454 18.6401 44.7087C18.524 44.7861 18.4196 44.8778 18.3299 44.9813C18.0413 45.3996 17.5752 45.5715 17.124 45.7667C16.769 45.9216 16.4057 46.0594 16.0457 46.2035C15.9147 46.3584 15.7372 46.3584 15.4851 46.3785C15.2329 46.3986 15.009 46.6341 14.7651 46.7611C14.5855 46.8527 14.3986 46.9314 14.2061 46.9965C14.0834 47.0383 13.944 47.0368 13.8163 47.0693C13.6886 47.1018 13.5907 47.2753 13.39 47.1592C13.3336 47.1266 13.1727 47.2676 13.0582 47.3141C12.9437 47.3605 12.7928 47.4008 12.6617 47.4504C12.5307 47.4999 12.388 47.5603 12.2504 47.6052L11.6482 47.7958L11.6797 47.881C11.3861 47.7849 11.1821 47.9197 10.9897 48.1737C10.9958 47.825 10.9719 47.4764 10.9183 47.1313C10.8047 46.7593 10.6684 46.3937 10.5103 46.0362C10.4472 45.8704 10.4157 45.6923 10.3444 45.5328C10.0557 44.9364 9.7555 44.3478 9.46189 43.7546C9.41378 43.6601 9.38559 43.5594 9.3408 43.4634C9.24459 43.2527 9.37397 43.2388 9.54815 43.2388C10.0856 43.2388 10.6231 43.231 11.1622 43.231C11.3762 43.231 11.5935 43.2636 11.8075 43.2496C12.3167 43.2187 12.826 43.1644 13.3369 43.1257C13.469 43.1195 13.6013 43.1195 13.7333 43.1257C14.231 43.1257 14.7286 43.1428 15.2147 43.1366C15.7671 43.1366 16.3211 43.0715 16.8735 43.0994C17.5818 43.1366 18.2885 43.2248 18.9918 43.3193C19.2259 43.3604 19.4505 43.4396 19.6553 43.5532C19.8593 43.6694 19.7084 43.8336 19.6138 43.9172V43.9172ZM101.921 43.4231C101.755 43.7329 101.755 44.0241 101.674 44.3246C101.606 44.4836 101.518 44.6349 101.413 44.7753C101.345 44.9039 101.296 45.0402 101.236 45.1734L101.01 45.6753L100.886 45.6319C100.962 45.415 101.038 45.1997 101.111 44.9813C101.16 44.8712 101.194 44.7556 101.211 44.6375C101.243 43.832 101.649 42.3977 102.057 41.6945C102.102 41.6291 102.151 41.5661 102.203 41.5055C102.317 42.1567 102.218 42.8247 101.921 43.4231V43.4231Z" fill="white"/>
</g>
<defs>
<clipPath id="clip0_1012_159">
<rect width="175" height="56.3553" fill="white"/>
</clipPath>
</defs>
</svg>
