<svg width="18" height="13" viewBox="0 0 18 13" fill="none" xmlns="http://www.w3.org/2000/svg">
<path d="M16.8998 0.349998C16.8998 0.199999 16.9998 0.149999 16.9998 0.0499992C16.8998 0.0499992 16.6998 -1.19209e-07 16.5998 0.0499992C16.3998 0.0499992 16.3998 0 16.3498 0C16.0498 0.0499994 15.6498 0.149999 15.3498 0.0499992V0.15C15.1498 0.15 15.0498 0.149999 15.0498 0.0499992L14.7498 0.199999C14.5998 0.199999 14.7498 0.149999 14.7498 0.0499992C14.5998 0.0499992 14.5998 0.0499994 14.4998 0.15C14.4998 0.0499994 14.2998 0.149999 14.1998 0.0499992C13.9998 0.2 13.4998 0.0499978 13.2998 0.199999C13.1998 0.149998 12.9998 0.149999 12.9998 0.0499992C12.7498 0.149999 12.6498 0.149998 12.3498 0.349998C12.1498 0.349998 12.0498 0.149999 12.1498 0.0499992C11.1498 -1.19209e-07 8.89981 0.149999 7.7998 0.0499992V0.15C7.5998 0.15 7.5998 0.0499992 7.5998 0.0499992C7.29981 0.0499992 7.0498 0.149999 6.7498 0.0499992V0.15C6.3498 0.0499994 5.9498 0.199999 5.6498 0.199999C5.4498 0.199999 5.3498 0.0499992 5.1998 0.0499992C5.0998 0.0499992 2.9498 0.199999 2.8498 0.199999C2.8498 0.199999 2.6498 0.0499992 2.5498 0.0499992H2.1498C2.1498 0.0499992 2.1498 0.15 1.9498 0.15H0.999805C0.999805 0.5 0.999805 0.699999 1.0998 1.05C1.0998 1.1 0.999805 1.1 0.999805 1.1C1.0998 1.2 0.799805 1.35 1.0998 1.4C1.0998 1.5 1.2998 1.4 1.3998 1.4V1.55C1.3998 1.7 1.2998 1.7 1.0998 1.75C0.999805 1.85 0.999805 2.05 0.999805 2.2C0.799805 2.55 0.799805 2.95 0.799805 3.3C0.799805 3.4 0.999805 3.4 0.999805 3.4C0.799805 3.75 0.799805 3.95 0.999805 4.3C1.0998 4.3 1.0998 4.3 1.2998 4.1C1.3998 4.3 1.3998 4.35 1.3998 4.35C1.9498 4.3 4.59981 4.35 5.1998 4.35H8.0998C8.0998 4.35 8.4998 4.35 8.4998 4.3C8.5998 4.35 8.79981 4.45 8.79981 4.35H11.3498C11.6498 4.35 11.8498 4.3 12.0498 4.1C12.1498 4.1 12.1498 4.3 12.1498 4.35C13.8998 4.35 15.3498 4.35 16.9998 4.3C16.9998 4.1 17.1998 4.05 17.1998 3.95C16.9998 3.95 16.8998 4.1 16.6998 3.95C16.5998 3.9 17.1998 3.9 16.9998 3.75L16.8998 3.8C16.8998 3.8 16.6998 3.75 16.8998 3.75C16.9998 3.6 17.1998 3.45 16.8998 3.4C16.8998 3.3 16.9998 3.3 16.9998 3.3C17.1998 2.95 16.8998 2.7 16.9998 2.4C16.8998 2.4 16.6998 2.4 16.6998 2.3C16.8998 2.1 16.9998 2.05 16.9998 1.85C17.1998 1.7 16.8998 1.85 16.8998 1.75C16.9998 1.55 17.1998 1.4 16.6998 1.35L17.1998 1.1C17.1998 1.05 16.8998 1.05 16.8998 0.9C16.8998 0.849999 17.1998 0.849998 16.9998 0.699999C16.9998 0.649999 16.6998 0.849998 16.6998 0.699999C16.8498 0.599999 16.8998 0.499998 16.9498 0.449999C16.9498 0.399998 16.8998 0.349998 16.8998 0.349998ZM16.9998 0.399998L16.9498 0.449999C16.9998 0.449999 16.9998 0.449999 16.9998 0.399998Z" fill="white"/>
<path d="M16.8998 8.35C16.8998 8.2 16.9998 8.15 16.9998 8.05C16.8998 8.05 16.6998 8 16.5998 8.05C16.3998 8.05 16.3998 8 16.3498 8C16.0498 8.05 15.6498 8.15 15.3498 8.05V8.15C15.1498 8.15 15.0498 8.15 15.0498 8.05L14.7498 8.2C14.5998 8.2 14.7498 8.15 14.7498 8.05C14.5998 8.05 14.5998 8.05 14.4998 8.15C14.4998 8.05 14.2998 8.15 14.1998 8.05C13.9998 8.2 13.4998 8.05 13.2998 8.2C13.1998 8.15 12.9998 8.15 12.9998 8.05C12.7498 8.15 12.6498 8.15 12.3498 8.35C12.1498 8.35 12.0498 8.15 12.1498 8.05C11.1498 8 8.89981 8.15 7.7998 8.05V8.15C7.5998 8.15 7.5998 8.05 7.5998 8.05C7.29981 8.05 7.0498 8.15 6.7498 8.05V8.15C6.3498 8.05 5.9498 8.2 5.6498 8.2C5.4498 8.2 5.3498 8.05 5.1998 8.05C5.0998 8.05 2.9498 8.2 2.8498 8.2C2.8498 8.2 2.6498 8.05 2.5498 8.05H2.1498C2.1498 8.05 2.1498 8.15 1.9498 8.15H0.999805C0.999805 8.5 0.999805 8.7 1.0998 9.05C1.0998 9.1 0.999805 9.1 0.999805 9.1C1.0998 9.2 0.799805 9.35 1.0998 9.4C1.0998 9.5 1.2998 9.4 1.3998 9.4V9.55C1.3998 9.7 1.2998 9.7 1.0998 9.75C0.999805 9.85 0.999805 10.05 0.999805 10.2C0.799805 10.55 0.799805 10.95 0.799805 11.3C0.799805 11.4 0.999805 11.4 0.999805 11.4C0.799805 11.75 0.799805 11.95 0.999805 12.3C1.0998 12.3 1.0998 12.3 1.2998 12.1C1.3998 12.3 1.3998 12.35 1.3998 12.35C1.9498 12.3 4.59981 12.35 5.1998 12.35H8.0998C8.0998 12.35 8.4998 12.35 8.4998 12.3C8.5998 12.35 8.79981 12.45 8.79981 12.35H11.3498C11.6498 12.35 11.8498 12.3 12.0498 12.1C12.1498 12.1 12.1498 12.3 12.1498 12.35C13.8998 12.35 15.3498 12.35 16.9998 12.3C16.9998 12.1 17.1998 12.05 17.1998 11.95C16.9998 11.95 16.8998 12.1 16.6998 11.95C16.5998 11.9 17.1998 11.9 16.9998 11.75L16.8998 11.8C16.8998 11.8 16.6998 11.75 16.8998 11.75C16.9998 11.6 17.1998 11.45 16.8998 11.4C16.8998 11.3 16.9998 11.3 16.9998 11.3C17.1998 10.95 16.8998 10.7 16.9998 10.4C16.8998 10.4 16.6998 10.4 16.6998 10.3C16.8998 10.1 16.9998 10.05 16.9998 9.85C17.1998 9.7 16.8998 9.85 16.8998 9.75C16.9998 9.55 17.1998 9.4 16.6998 9.35L17.1998 9.1C17.1998 9.05 16.8998 9.05 16.8998 8.9C16.8998 8.85 17.1998 8.85 16.9998 8.7C16.9998 8.65 16.6998 8.85 16.6998 8.7C16.8498 8.6 16.8998 8.5 16.9498 8.45C16.9498 8.4 16.8998 8.35 16.8998 8.35ZM16.9998 8.4L16.9498 8.45C16.9998 8.45 16.9998 8.45 16.9998 8.4Z" fill="white"/>
</svg>
