<svg width="16" height="16" viewBox="0 0 16 16" fill="none" xmlns="http://www.w3.org/2000/svg">
<path d="M12.461 1.41006C12.3549 1.304 12.3903 1.19793 12.3196 1.12722C12.2489 1.19793 12.0721 1.304 12.0367 1.41006C11.8953 1.55149 11.86 1.51613 11.8246 1.55149C11.6478 1.79897 11.4357 2.15253 11.1529 2.29395L11.2236 2.36466C11.0821 2.50608 11.0114 2.57679 10.9407 2.50608L10.8347 2.82428C10.7286 2.93034 10.7993 2.78892 10.7286 2.71821C10.6225 2.82428 10.6225 2.82428 10.6225 2.9657C10.5518 2.89499 10.4811 3.10712 10.3397 3.10712C10.3043 3.35461 9.84471 3.60209 9.80936 3.84958C9.70329 3.88494 9.56187 4.02636 9.49116 3.95565C9.38509 4.20314 9.31438 4.27385 9.24367 4.6274C9.10225 4.76882 8.89012 4.69811 8.89012 4.55669C8.14766 5.22844 6.66273 6.9255 5.8142 7.6326L5.88491 7.70332C5.74349 7.84474 5.67278 7.77403 5.67278 7.77403C5.46065 7.98616 5.35458 8.23365 5.07174 8.37507L5.14245 8.44578C4.7889 8.65791 4.61212 9.04682 4.39999 9.25895C4.25857 9.40037 4.08179 9.36502 3.97573 9.47108C3.90502 9.54179 2.4908 11.1681 2.42009 11.2388C2.42009 11.2388 2.1726 11.2742 2.10189 11.3449L1.81905 11.6278C1.81905 11.6278 1.88976 11.6985 1.74834 11.8399L1.07659 12.5116C1.32408 12.7591 1.4655 12.9005 1.7837 13.0773C1.81905 13.1127 1.74834 13.1834 1.74834 13.1834C1.88976 13.1834 1.7837 13.5016 2.03118 13.3248C2.10189 13.3955 2.1726 13.1834 2.24331 13.1127L2.34938 13.2187C2.45545 13.3248 2.38474 13.3955 2.27867 13.5723C2.27867 13.7137 2.42009 13.8551 2.52616 13.9612C2.63222 14.3501 2.91507 14.633 3.16255 14.8804C3.23326 14.9512 3.37469 14.8097 3.37469 14.8097C3.48075 15.1986 3.62217 15.3401 4.01108 15.4461C4.08179 15.3754 4.08179 15.3754 4.08179 15.0926C4.29392 15.1633 4.32928 15.1986 4.32928 15.1986C4.68283 14.7744 6.59202 12.9359 7.01629 12.5116L9.0669 10.461C9.0669 10.461 9.34974 10.1782 9.31438 10.1428C9.42045 10.1075 9.63258 10.0368 9.56187 9.96606L11.365 8.16294C11.5771 7.9508 11.6832 7.77403 11.6832 7.49118C11.7539 7.42047 11.8953 7.56189 11.9307 7.59725C13.1681 6.35981 14.1934 5.33451 15.3248 4.13243C15.1834 3.991 15.2894 3.81423 15.2187 3.74352C15.0773 3.88494 15.1127 4.06171 14.8652 4.09707C14.7591 4.13243 15.1834 3.70816 14.9359 3.74352L14.9005 3.84958C14.9005 3.84958 14.7237 3.95565 14.8652 3.81423C14.8298 3.63745 14.8652 3.38996 14.6177 3.56674C14.547 3.49603 14.6177 3.42532 14.6177 3.42532C14.5116 3.03641 14.1227 3.07176 13.9813 2.78892C13.9106 2.85963 13.7692 3.00105 13.6984 2.93034C13.6984 2.6475 13.7338 2.54143 13.5924 2.40001C13.6277 2.15253 13.5217 2.47072 13.451 2.40001C13.3802 2.18788 13.4156 1.9404 13.0267 2.25859L13.2035 1.72826C13.1681 1.69291 12.956 1.90504 12.8499 1.79897C12.8146 1.76362 13.0267 1.55148 12.7792 1.58684C12.7439 1.55149 12.6731 1.90504 12.5671 1.79897C12.6024 1.6222 12.5671 1.51613 12.5671 1.44542C12.5317 1.41006 12.461 1.41006 12.461 1.41006ZM12.5671 1.37471L12.5671 1.44542C12.6024 1.41006 12.6024 1.41006 12.5671 1.37471Z" fill="white"/>
<path d="M14.8801 12.2245C14.9862 12.1184 15.0922 12.1538 15.1629 12.083C15.0922 12.0123 14.9862 11.8356 14.8801 11.8002C14.7387 11.6588 14.774 11.6234 14.7387 11.5881C14.4912 11.4113 14.1376 11.1992 13.9962 10.9163L13.9255 10.987C13.7841 10.8456 13.7134 10.7749 13.7841 10.7042L13.4659 10.5981C13.3598 10.4921 13.5012 10.5628 13.5719 10.4921C13.4659 10.386 13.4659 10.386 13.3245 10.386C13.3952 10.3153 13.183 10.2446 13.183 10.1031C12.9356 10.0678 12.6881 9.60817 12.4406 9.57281C12.4052 9.46675 12.2638 9.32533 12.3345 9.25462C12.087 9.14855 12.0163 9.07784 11.6628 9.00713C11.5213 8.86571 11.592 8.65358 11.7335 8.65358C11.0617 7.91112 9.36466 6.42619 8.65756 5.57766L8.58685 5.64837C8.44542 5.50695 8.51614 5.43624 8.51614 5.43624C8.304 5.22411 8.05652 5.11804 7.91509 4.8352L7.84438 4.90591C7.63225 4.55236 7.24334 4.37558 7.03121 4.16345C6.88979 4.02203 6.92515 3.84525 6.81908 3.73918C6.74837 3.66847 5.12202 2.25426 5.05131 2.18355C5.05131 2.18355 5.01596 1.93606 4.94525 1.86535L4.6624 1.58251C4.6624 1.58251 4.59169 1.65322 4.45027 1.5118L3.77852 0.840047C3.53103 1.08753 3.38961 1.22896 3.21283 1.54715C3.17748 1.58251 3.10677 1.5118 3.10677 1.5118C3.10677 1.65322 2.78857 1.54715 2.96535 1.79464C2.89464 1.86535 3.10677 1.93606 3.17748 2.00677L3.07141 2.11284C2.96535 2.21891 2.89464 2.1482 2.71786 2.04213C2.57644 2.04213 2.43502 2.18355 2.32895 2.28962C1.94004 2.39568 1.6572 2.67852 1.40971 2.92601C1.339 2.99672 1.48042 3.13814 1.48042 3.13814C1.09151 3.24421 0.950093 3.38563 0.844027 3.77454C0.914738 3.84525 0.914738 3.84525 1.19758 3.84525C1.12687 4.05738 1.09151 4.09274 1.09151 4.09274C1.51578 4.44629 3.35426 6.35548 3.77852 6.77974L5.82913 8.83035C5.82913 8.83035 6.11197 9.1132 6.14733 9.07784C6.18268 9.18391 6.25339 9.39604 6.3241 9.32533L8.12723 11.1285C8.33936 11.3406 8.51614 11.4466 8.79898 11.4466C8.86969 11.5174 8.72827 11.6588 8.69291 11.6941C9.93035 12.9316 10.9557 13.9569 12.1577 15.0882C12.2992 14.9468 12.4759 15.0529 12.5466 14.9822C12.4052 14.8408 12.2284 14.8761 12.1931 14.6286C12.1577 14.5226 12.582 14.9468 12.5466 14.6993L12.4406 14.664C12.4406 14.664 12.3345 14.4872 12.4759 14.6286C12.6527 14.5933 12.9002 14.6286 12.7234 14.3811C12.7941 14.3104 12.8648 14.3811 12.8648 14.3811C13.2538 14.2751 13.2184 13.8862 13.5012 13.7447C13.4305 13.674 13.2891 13.5326 13.3598 13.4619C13.6427 13.4619 13.7487 13.4973 13.8901 13.3558C14.1376 13.3912 13.8194 13.2851 13.8901 13.2144C14.1023 13.1437 14.3498 13.1791 14.0316 12.7902L14.5619 12.9669C14.5973 12.9316 14.3851 12.7194 14.4912 12.6134C14.5265 12.578 14.7387 12.7902 14.7033 12.5427C14.7387 12.5073 14.3851 12.4366 14.4912 12.3305C14.668 12.3659 14.774 12.3305 14.8447 12.3305C14.8801 12.2952 14.8801 12.2245 14.8801 12.2245ZM14.9155 12.3305L14.8447 12.3305C14.8801 12.3659 14.8801 12.3659 14.9155 12.3305Z" fill="white"/>
</svg>
