<svg width="26" height="26" viewBox="0 0 26 26" fill="none" xmlns="http://www.w3.org/2000/svg">
<path d="M19.8392 5.03972C19.5364 5.03972 19.2404 5.12606 18.9886 5.28783C18.7368 5.4496 18.5406 5.67954 18.4247 5.94856C18.3088 6.21757 18.2785 6.5136 18.3375 6.79918C18.3966 7.08477 18.5424 7.34707 18.7566 7.55297C18.9707 7.75886 19.2435 7.89907 19.5405 7.95588C19.8375 8.01268 20.1454 7.98354 20.4252 7.87211C20.7049 7.76068 20.9441 7.57196 21.1123 7.32985C21.2805 7.08775 21.3704 6.80312 21.3704 6.51194C21.3685 6.12204 21.2065 5.74865 20.9198 5.47295C20.6331 5.19725 20.2447 5.04155 19.8392 5.03972ZM13.0472 6.92362C11.7767 6.92224 10.5344 7.28323 9.47732 7.9609C8.42028 8.63858 7.59602 9.60248 7.10884 10.7307C6.62167 11.8589 6.49347 13.1007 6.74044 14.299C6.98741 15.4973 7.59846 16.5982 8.4963 17.4625C9.39414 18.3268 10.5384 18.9156 11.7844 19.1544C13.0303 19.3932 14.3219 19.2714 15.4958 18.8042C16.6697 18.3371 17.6731 17.5456 18.3791 16.53C19.0851 15.5143 19.4619 14.3202 19.4619 13.0986C19.46 11.4627 18.7838 9.89418 17.5814 8.73675C16.379 7.57931 14.7485 6.92731 13.0472 6.92362ZM13.0472 17.0548C12.2331 17.0561 11.4369 16.8253 10.7593 16.3914C10.0818 15.9576 9.55329 15.3402 9.24077 14.6174C8.92824 13.8946 8.84573 13.0989 9.00366 12.3311C9.1616 11.5632 9.55289 10.8576 10.128 10.3036C10.7031 9.74965 11.4362 9.37217 12.2346 9.21895C13.0329 9.06574 13.8605 9.14369 14.6128 9.44292C15.365 9.74214 16.008 10.2492 16.4604 10.8999C16.9128 11.5507 17.1543 12.3158 17.1543 13.0986C17.1543 14.1466 16.7219 15.1519 15.9518 15.8936C15.1818 16.6353 14.1371 17.0529 13.0472 17.0548ZM26 7.98416C26 6.99548 25.7975 6.0165 25.404 5.10309C25.0105 4.18967 24.4338 3.35975 23.7067 2.66066C22.9796 1.96156 22.1165 1.407 21.1666 1.02865C20.2166 0.650307 19.1985 0.455566 18.1702 0.455566H7.82975C5.75318 0.455566 3.76164 1.24877 2.29327 2.66066C0.824911 4.07255 0 5.98744 0 7.98416V17.92C-8.90451e-07 19.9173 0.824698 21.833 2.29285 23.246C3.76101 24.659 5.75251 25.4537 7.82975 25.4556H18.1702C20.2475 25.4537 22.239 24.659 23.7071 23.246C25.1753 21.833 26 19.9173 26 17.92V7.98416ZM23.5473 17.92C23.5473 19.2919 22.981 20.6076 21.9728 21.5784C20.9647 22.5491 19.597 23.0954 18.1702 23.0972H7.82975C6.403 23.0954 5.03535 22.5491 4.02716 21.5784C3.01898 20.6076 2.45269 19.2919 2.4527 17.92V7.97023C2.4527 6.59899 3.01921 5.28391 4.02761 4.3143C5.036 3.34469 6.40367 2.79996 7.82975 2.79996H18.1702C19.5963 2.79996 20.964 3.34469 21.9724 4.3143C22.9808 5.28391 23.5473 6.59899 23.5473 7.97023V17.92Z" fill="white"/>
</svg>
